<?xml version="1.0" encoding="UTF-8"?>
<svg viewBox="0 0 744.09448819 1052.3622047" xmlns="http://www.w3.org/2000/svg">
 <defs>
  <radialGradient id="b" cx="439.29" cy="492.01" r="15.714" gradientTransform="matrix(1 1.2092e-16 -1.6578e-17 .47727 1.7185e-14 257.18)" gradientUnits="userSpaceOnUse">
   <stop stop-color="#f15959" stop-opacity=".28866" offset="0"/>
   <stop stop-color="#f15959" stop-opacity="0" offset="1"/>
  </radialGradient>
  <radialGradient id="a" cx="427.14" cy="825.22" r="137.14" gradientTransform="matrix(1 4.0346e-18 -1.618e-18 .11458 4.4327e-15 730.66)" gradientUnits="userSpaceOnUse">
   <stop stop-opacity=".16495" offset="0"/>
   <stop stop-opacity="0" offset="1"/>
  </radialGradient>
 </defs>
 <path transform="matrix(1.1051 -.0073425 .0067918 1.0222 32.99 -96.151)" d="m564.29 825.22a137.14 15.714 0 1 1 -274.29 0 137.14 15.714 0 1 1 274.29 0z" fill="url(#a)"/>
 <path d="m400.73 585.33c0.94615 8.087 7.1955 14.248 9.9243 21.884 6.012 14.493 16.56 41.3 27.061 53.616 3.6166 3.468 1.5852 7.4185-1.2932 8.773-2.6773-8.2211-11.844-18.104-15.422-25.923-6.7605-11.67-11.038-24.4-16.264-36.699-2.309-6.5794-7.204-13.857-5.3535-21.008l1.3477-0.64346z"/>
 <path d="m379.17 594.4c1.6165 8.4299 7.2882 15.683 10.206 23.717 4.4993 9.6086 15.231 27.301 21.073 36.232 3.7326 5.0153 9.0514 8.8278 7.5152 13.413-3.2516-0.92456-15.305-14.613-17.288-17.31-5.5939-9.3517-11.59-18.543-15.679-28.599-2.3653-6.3704-6.8511-16.685-8.2623-23.337-0.36374-2.4721 2.3215-1.6363 2.4344-4.1163z"/>
 <path d="m256.62 446.84c3.5097 11.202-15.772-14.553-18.533-17.438-16.162-15.737-35.166-31.039-59.061-34.559-20.132-1.1261-49.989 1.2587-62.114 19.242l-0.86873-4.6689c13.156-17.364 42.279-19.786 62.764-18.849 23.988 3.4353 43.06 18.673 59.382 34.364 7.4416 7.8234 18.452 15.776 19.62 26.646l-1.1907-4.736z"/>
 <path transform="matrix(1.5672 -.12049 .11145 1.4496 -465.41 -52.812)" d="m349.51 355.36a7.8287 8.5863 0 1 1 -15.657 0 7.8287 8.5863 0 1 1 15.657 0z"/>
 <path d="m375.82 471.82s-175.04-120.08-121.94-177.04 133.85 171.18 133.85 171.18" fill="#73dfff" fill-opacity=".35223" stroke="#000" stroke-width="6.1231"/>
 <path d="m284.22 426.66c3.5097 11.202-15.772-14.553-18.533-17.438-16.162-15.737-4.7464-39.27-28.642-42.79-20.132-1.126-74.702 21.571-86.827 39.554l-0.86873-4.6689c13.156-17.364 68.973-45.406 89.458-44.469 23.988 3.4352 10.66 32.211 26.982 47.903 7.4416 7.8234 18.452 15.776 19.62 26.646l-1.1907-4.736z"/>
 <path transform="matrix(1.5672 -.12049 .11145 1.4496 -424.15 -58.47)" d="m349.51 355.36a7.8287 8.5863 0 1 1 -15.657 0 7.8287 8.5863 0 1 1 15.657 0z"/>
 <path d="m444.49 584.92c0.94613 8.087 7.1955 14.248 9.9242 21.884 6.012 14.493 16.56 41.3 27.061 53.616 3.6166 3.468 1.5852 7.4185-1.2931 8.773-2.6774-8.2211-11.844-18.104-15.422-25.923-6.7606-11.67-11.038-24.4-16.264-36.699-2.309-6.5794-7.204-13.857-5.3535-21.008l1.3478-0.64345z"/>
 <path d="m426.21 595.21c1.6165 8.4298 7.2882 15.683 10.206 23.717 4.4993 9.6086 15.231 27.301 21.073 36.232 3.7327 5.0153 9.0515 8.8278 7.5152 13.413-3.2516-0.92456-15.305-14.613-17.288-17.31-5.5939-9.3517-11.59-18.543-15.679-28.599-2.3653-6.3704-6.8511-16.685-8.2623-23.337-0.36376-2.4721 2.3215-1.6363 2.4344-4.1163z"/>
 <path d="m483.61 576.02c0.94611 8.087 7.1955 14.248 9.9242 21.884 6.012 14.493 16.56 41.3 27.061 53.616 3.6166 3.468 1.5852 7.4185-1.2931 8.773-2.6774-8.2211-11.844-18.104-15.422-25.923-6.7605-11.67-11.038-24.4-16.264-36.699-2.3091-6.5794-7.2041-13.857-5.3535-21.008l1.3478-0.64347z"/>
 <path d="m465.33 586.31c1.6165 8.4299 7.2882 15.684 10.206 23.717 4.4993 9.6086 15.231 27.301 21.073 36.232 3.7326 5.0153 9.0514 8.8278 7.5152 13.413-3.2516-0.92456-15.305-14.613-17.288-17.31-5.5939-9.3517-11.59-18.543-15.679-28.599-2.3653-6.3704-6.851-16.685-8.2623-23.337-0.36376-2.4721 2.3215-1.6363 2.4344-4.1164z"/>
 <path transform="matrix(1.8753 -.14418 .20378 2.6505 -201.14 -1160.7)" d="m168.7 636.18a19.193 24.749 0 1 1 -38.386 0 19.193 24.749 0 1 1 38.386 0z" fill="#fff" stroke="#000" stroke-width="2.7384"/>
 <path d="m192.24 517.84c4.4567-0.14058 7.9718-5.5201 7.816-12.033s-3.924-11.711-8.3808-11.571-7.9181 5.5671-7.7623 12.08 3.8703 11.664 8.327 11.524zm4.0997-6.8018c-1.4074 0.04444-2.5622-1.5192-2.609-3.4731s1.0316-3.588 2.439-3.6324 2.6148 1.5176 2.6616 3.4715-1.0842 3.5896-2.4916 3.634z"/>
 <path d="m543.84 499.29c3.5438 46.094-50.346 82.883-100.01 86.702s-92.856-30.492-96.4-76.586 33.891-86.603 83.56-90.422 109.31 34.212 112.85 80.307z" fill="#262626" stroke="#000" stroke-width="6.1231"/>
 <path transform="matrix(1.8753 -.14418 .13336 1.7346 -130.66 -603.3)" d="m242.94 667.24a35.355 46.214 0 1 1 -70.711 0 35.355 46.214 0 1 1 70.711 0z" fill="#262626" stroke="#000" stroke-width="3.385"/>
 <path d="m336.77 498.8c-30.046-83.922-84.723-63.948-114.28-34.704-7.513 7.4325-63.981 91.061 32.078 155.9 96.469 65.116 97.044-71.924 82.206-121.2z" fill="#ffee73" stroke="#000" stroke-width="6.1231"/>
 <path transform="matrix(4.1271 -1.0085 .98517 4.4366 -2005.9 -1181.8)" d="m455 492.01a15.714 7.5 0 1 1 -31.429 0 15.714 7.5 0 1 1 31.429 0z" fill="url(#b)"/>
 <path d="m318.81 490.7c3.1028 24.932-3.3627 51.763-21.278 71.316-13.104 10.093-32.475 1.8219-42.248-9.1463-25.317-35.611-27.775-85.071-3.3338-122.17 9.8874-12.629 32.641-13.311 42.92-1.1067 14.956 13.958 19.55 34.122 22.859 52.93 0.40484 2.7206 0.75721 5.4482 1.0805 8.179z" fill="#fff" stroke="#000" stroke-width="6.1231"/>
 <path d="m271.08 513.63c4.4567-0.14059 7.9718-5.5201 7.816-12.033s-3.924-11.711-8.3808-11.571-7.9181 5.5671-7.7623 12.08 3.8703 11.664 8.327 11.524zm4.0997-6.8018c-1.4074 0.04443-2.5622-1.5192-2.609-3.4731s1.0316-3.588 2.439-3.6324 2.6148 1.5176 2.6616 3.4715-1.0842 3.5896-2.4916 3.634z"/>
 <path d="m354.08 442.58s-52.369-198.97 35.048-208.99-20.73 211.95-20.73 211.95" fill="#73dfff" fill-opacity=".35223" stroke="#000" stroke-width="6.1231"/>
 <path d="m380.29 438.55c12.624 15.232 54.037 92.102 25.071 142.7 5.7504 3.19 20.641 7.6211 33.223 6.2098 30.221-32.679 25.946-117.97-24.806-165.48-11.874 2.4708-24.745 8.5317-33.488 16.562z" fill="#ffee73"/>
 <path d="m441.8 418.24c30.368 26.954 64.078 105.51 32.958 163.13 11.457-3.6362 27.582-12.687 40.025-21.421 16.852-34.623 17.928-84.246-25.936-129.79-2.8971-1.2573-28.29-12.383-47.046-11.918z" fill="#ffee73"/>
</svg>
