<?xml version="1.0" encoding="UTF-8"?>
<svg viewBox="0 0 210 192.5" xmlns="http://www.w3.org/2000/svg">
 <g transform="matrix(1.25,0,0,-1.25,0,192.5)">
  <g transform="scale(.24)">
   <path d="m227.6 403.68c-3.504 3.109-7.844 5.308-14.555 7.23-34.965 10.028-60.68 8.992-91.184 12.582-18.468 2.239-40.675 0.77-58.187 1.012-12.566 0.164-28.914 4.469-33.117-10.187-0.457-1.586 5.4687-6.918 6.9805-8.309 9.6054-9.824 16.586-18.133 27.629-27.606 11.523-9.8 23.684-14.05 36.695-24.664-8.566-11.875-22.117-13.148-34.312-17.679-16.305-6.219-31.027-16.903-44.012-30.188-6.5664-6.906-13.633-7.558-16.926-19.035-2.4297-8.477 4.6836-11.66 11.266-14.695 15.664-7.36 24.793-15.52 43.156-20.785 27.902-8 51.649-7.164 74.133-6.735 11.508 0.141 21.074 3.516 30.738 5.903 13.633 3.543 22.871 6.437 35.618 11.574 17.089 6.945 28.679 10.148 44.765 21.59 6.031 4.386 12.043 9.894 17.824 14.734 4.825 4.16 7.809 9.227 13.942 12.629 6.82 3.777 12.39-0.113 20.039 0.562 9.262 0.973 13.383 10.684 16.117 20.219 3.898 13.598-2.348 23.797-9.812 31.098-19.79 19.625-45.672 28.004-73.743 44.078l-3.054-3.328" fill="#b3d1ef"/>
   <path d="m393.09 515.6c4.969 26.665 16.695 43.563 28.828 64.543 5.84 10.364 20.262 52.668 35.805 48.211 5.121-1.468 7.886-9.14 9.879-12.195 8.617-13.937 11.625-32.766 16-49.5 18.726-0.016 39.496 28.426 53.937 38.809 4.344 3.148 15.637 15.199 22.524 13.226 4.238-1.215 4.886-6.945 5.589-9.824 3.145-12.367 9.688-32.207 8.536-46.211l-5.266-18.363c0.609-22.535 9.98-41.848 1.828-70.278-5.773-20.128-19.723-38.109-28.52-55.46-18.632-36.317-34.632-63.454-65.05-78.235-21.082-10.199-59.391-13.168-86.938-5.265-31.258 8.96-23.496 49.351-14.637 80.253 5.368 18.719 3.797 39.235 3.965 53.141l13.52 47.148" fill="#b3d1ef"/>
   <path d="m609.309,185.293c22.031,1.516 37.703,3.52 57.589,8.902 8.282,2.211 16.258,7.375 25.418,7.996 .071-5.75-1.113-3.882-2.023-7.062-7.141-24.899-20.203-43.129-38.715-57.695-20.758-16.407-32.226-31.082-59.988-34.59-.121,5.578-.395,9.289 1.328,16.629l12.812,44.675c2.227,7.77 3.547,15.036.649,20.262l2.93.883" fill="#cba917"/>
   <path d="m452.92 250.4c-10.805-3.02-11.973-12.43-16.504-24.891-3.894-10.922-11.695-16.137-17.48-22.316-5.231-5.571-9.352-13.946-14.305-20.551-7.274-9.379-18.133-15.246-22.586-30.785-1.367-4.77 0.977-7.926 0.668-13-1.246-33.657 11.336-43.762 41.68-58.579l15.011-4.3046c33.028-5.4571 51.981-1.3399 77.418 0.7304 20.922 1.6446 42.223 5.2852 54.731 21.574 7.883 10.161 10.394 27.594 13.586 38.719 3.597 12.539 13.695 44.422 3.683 51.5-8.625 5.91-26.031 10.52-33.953 14.895-11.422 6.14-27.965 17.765-37.699 25.14-8.297 6.395-9.898 18.129-20.32 21.118-6.532 1.875-9.922-7.286-16.809-5.309-8.301 2.379-3.422 12.066-11.191 14.293-2.649 0.762-2.024-7.063-2.024-7.063-1.519-5.296-19.484-1.293-25.234 1.313l11.328-2.484" fill="#cba917"/>
   <path d="m305.5,305.469c-2.984-7.742-8.289-14.25-11.074-23.961-14.028-48.914 9.945-75.281 41.09-99.309 9.855-7.605 26.597-23.871 38.957-27.414 13.597-3.898 30.148,18.492 35.867,33.094 6.297,15.969 18.238,22.289 23.555,40.832 2.23,7.769 7.398,28.457 7.359,40.316-.094,10.344-5.992,17.77-8.938,25.493-3.925,10.3-3.277,26.55-17.582,30.652-19.425,5.57-35.972-12.809-53.738-16.121-14.941-2.789-45.242,2.844-55.523-7.012l.027,3.43" fill="#cba917"/>
   <path d="m386.43 377.52c7.433 25.926 17.152 42.45 23.675 65.2 36.497 81.793 84.391 131.63 140.99 174.48 22.844 12.664 22.332-39.617 23.988-57.324 2.68-29.801 6.281-51.727-5.871-94.109-20.418-71.2-55.133-119.13-103.02-140.23-11.582-2.836-23.699-4.105-34.847-6.101-3.375-0.602-4.281 4.461-0.906 5.066 11.019 1.969 21.949 5.164 33.398 7.965 46.176 20.344 78.625 66.672 98.312 135.32 11.848 41.316 10.243 62.547 7.629 91.598-1.543 16.496 4.2 67.152-17.086 55.355-56.175-42.531-102.91-92.086-139.14-173.27-6.543-22.813-18.254-38.356-25.707-64.352-0.27-0.941-1.684-0.535-1.414 0.406" fill="#231f20"/>
   <path d="m277.44 346.86c-21.722 7.942-50.836 8.864-72.941 10.821-37.52 2.394-72.453-1.621-104.96-10.926-18.586-6.461-32.367-10.637-48.195-19.41-7.6601-5.262-42.605-23.551-41.957-41.449 0.47657-13.864 39.051-29.309 55.848-34.129 70.36-20.172 112.56 5.726 160.59 22.636 23.004 12.754 43.84 23.973 61.77 46.145 0.613 0.762 1.758-0.16 1.14-0.922-18.207-22.52-37.293-37.281-60.66-50.23-48.89-17.211-92.449-42.399-164.06-21.868-17.82 5.11-57.434 23.547-57.937 38.25-0.67969 18.797 35.672 38.539 43.719 44.063 15.984 8.859 29.969 13.539 48.738 20.062 32.86 9.407 68.297 13.496 106.21 11.075 22.258-1.973 51.324-4.739 73.195-12.739 0.922-0.336 0.414-1.715-0.504-1.379" fill="#231f20"/>
   <path d="m308.688,337.234c.878-4.265-2.809-32.445-1.219-32.902 9.711-2.785 24.504.809 32.301,2.012 26.679,4.39 47.046,10.781 70.371,18.808-5.321,4.774-10.567,6.469-13.512,12.856-2.441,5.476-.738,21.422-7.094,23.246-3.707,1.062-10.633-9.754-12.906-11.016-6.59-3.652-14.82-7.023-23.274-7.847-15.167-1.578-30.433-2.168-44.667-5.157" fill="#cba917"/>
   <path d="m247.535,435.227c-4.773-6.661-15.75-6.95-19.398-19.664-4.961-17.305-.153-29.196 16.269-33.907 6.887-1.972 11.938,2.309 18.824.336l5.696-8.133c8.015-9.367 5.137-15.925 15.527-22.347l22.449-6.504c31.668.472 59.809,1.961 70.696,39.926 4.656,16.246-5.832,24.988-1.68,39.468 1.316,4.59 10.879,3.95 13.309,12.426 4.812,16.777.742,34.57-15.504,39.231s-30.438-3.504-43.235-6.141c-7.898-1.559-11.258-3.27-18.597-2.887-6.586.36-9.914,3.418-14.711,2.692-9.008-1.43-12.93-11.774-19.196-18.957-2.879-3.379-12.543-3.094-16.886-4.907-6.512-2.718-10.883-7.961-16.11-10.859l2.547.227" fill="#e19772"/>
   <path d="m285.074,475.484c-2.469,3.387-4.636,7.829-9.582,9.246-8.476,2.43-25.668-7.546-32.183-10.261-3.254-1.364-8.125-1.684-10.93-4.129-2.348-2.195-2.879-4.715-3.793-7.895-3.137-10.949-3.734-25.683 7.215-28.824 6.887-1.976 17.441,2.836 22.465,5.024 10.5,4.632 28.543,2.902 32.894,18.085 .813,2.829-.219,5.227.59,8.051 .406,1.414 11.84,4.629 11.84,4.629 6.004-1.719 5.519-8.078 14.172-10.558l5.023,3.527c5.86,4.434 10.629,4.406 18,6.113 8.176,1.86 21.047,2.758 23.477,11.235 1.976,6.882-8.809,25.265-16.578,27.492-17.481,5.015-29.45-2.067-41.692-6.774-4.293-1.632-8.937-3.168-10.457-8.465-.859-3.003 1.106-5.48 3.578-7.523-2.804-2.445-12.32-6.98-15.675-6.016-4.239,1.215-5.598,7.145-12.106,8.438l13.742-11.395" fill="#ca9550"/>
   <path d="m239.426,449.59c12.844-1.199 32.449-.133 36.301,13.289 1.113,3.883-4.536,9.516-10.289,9.445-11.684-.09-23.829-8.453-26.012-22.734" fill="#b3bbd0"/>
   <path d="m338.547,503.344c-8.074-.168-28.723-6.864-31.203-15.516-1.219-4.238 5.937-17.945 9.996-19.109 8.125-2.332 32.379,2.945 34.758,11.246 2.027,7.062-7.625,20.723-16.102,23.152-1.41.406-2.293.66-3.707,1.063l6.258-.836" fill="#b3bbd0"/>
   <path d="m248.78 446.91c1.262 0.403 12.645 2.11 14.715 4 5.328 4.586 5.309 10.516 8.672 16.239-2.699 1.921-3.352 4.976-6.531 5.886-6.536 1.875-15.258-18.554-16.856-26.125" fill="#45737e"/>
   <path d="m330.113,499.262c-4.144-7.793-6.144-12.762-8.574-21.239-.656-2.293-1.062-3.707-1.723-6.003 11.657-3.34 12.317.293 15.204,10.359 1.722,6.004 4.55,10.543 7.964,16.441-3.507,1.77-6.308,2-10.597,3.039l-2.274-2.597" fill="#45737e"/>
   <path d="m317.15 502.03c-2.5 1.289-4.238 1.215-6.89 1.973-22.778 6.531-49.942-2.879-56.574-26.012 6.664 3.25 17.218 8.059 25.695 5.629 6.887-1.976 5.031-14.437 12.273-16.515 2.649-0.758 9.719 3.902 12.094 5.515-1.312 3.434-8.621 12.602-7.406 16.836 1.926 6.711 12.328 10.992 17.398 12.02-6.355 1.824-8.199 2.734-12.89 3.699l16.3-3.145" fill="#8d4745"/>
   <path d="m305.78 437.06c-2.316 3.91-6.074 7.472-12.078 9.195-18.011 5.164-37.222-5.188-42.289-22.848-5.469-19.07 0.981-32.574 20.051-38.043 17.66-5.066 35.891 6.524 41.105 24.711 3.645 12.715-3.863 21.176-11.378 28.301l4.589-1.316" fill="#fffee5"/>
   <path d="m348.95 403.66c6.711-1.926 19.766 6.945 22.246 15.598 6.938 24.191-1.699 42.722-24.836 49.355-15.007 4.305-24.804-1.867-28.703-15.465-7.597-26.488 5.864-42.195 31.293-49.488" fill="#fffee5"/>
   <path d="m376.69 466.41c4.059-1.164 5.868-10.855 4.602-15.269-1.418-4.946-7.227-10.543-9.297-12.434 1.449 12.391-3.922 16.988-11.281 23.305 4.265 3.55 8.734 6.476 15.976 4.398" fill="#e1985f"/>
   <path d="m248.03 419.6c-4.367-1.234-7.625-3.929-9.246-9.582-2.531-8.828 4.602-16.605 13.961-19.289 5.477-1.57 11.707-1.828 15.617-2.187l-1.839 2.25c-13.266 8.391-14.598 12.402-15.692 27.242l-2.801 1.566" fill="#e1985f"/>
   <path d="m320.64 384.26c1.136-2.043 2.144-3.863 4.437-4.52 6.887-1.976 12.699 4.957 14.672 11.844 1.316 4.594-2.465 7.398-6.324 9.27-3.086-6.762-3.215-13.223-10.512-13.997l-2.273-2.597" fill="#e1985f"/>
   <path d="m256.57,381.418c9.805-13.129 13.219-30.547 37.766-37.582 17.129-4.914 31.031-3.742 45.137-4.535-2.02-1.715-3.231-3.278-4.825-5.496 2.168-1.77 4.668-3.059 7.418-2.129-3.132-4.262-8.738-7.813-10.308-13.289-.153-.528 2.672-4.012 3.73-4.317 7.946-2.281 8.739,6.477 13.864,9.02 1.382-3.836 3.574-7.524 8.871-9.043 2.828-.809 7.347,3.629 8.89,5.668-8.172,6.168-5.843,14.289-12.754,18.183 12.172,9.122 23.563-.199 33.321,36.883 4.113,15.633-4.051,36.516-12.774,46.09-.996-13.476 1.918-27.305-2.234-41.785-9.371-32.668-47.152-38.461-79.645-29.145-21.191,6.079-21.304,19.68-30.273,33.715l-6.184-2.238" fill="#8d4745"/>
   <path d="m304.297,313.266c-13.93-.59-26.266,1.035-41.453,5.39-10.598,3.039-18.617,7.059-28.86,9.996-15.714,4.508-21.129-9.039-25.332-23.695-6.988-24.367 4.676-43.004-1.703-65.254l-6.359-2.187c-6.137-3.403-15.957-7.657-18.539-16.661-2.735-9.535 5.109-13.503 14.117-16.089 6.531-1.871 10.32-.664 15.191-.34l-1.519-5.301c9.383-4.602 21.523,1.09 24.359,10.98 3.949,13.774-7.199,18.883-10.418,28.977-2.015,6.313-1.047,12.34-.133,19.531 1.731,14.028.989,31.442 1.836,45.723l1.469,5.121c15.363-4.406 28.156-1.769 41.203-3.598 9.184-1.296 32.414-11.589 35.403-1.171 .859,3.003.23,5.476.738,8.578" fill="#e19772"/>
   <path d="m407.117,329.266c13.231,6.144 27.895,9.964 42.207,13.89 7.242,1.934 17.192,7.301 26.547,4.617 7.594-2.179 7.027-17.496 6.895-23.953l-6.028-21.015c-.738-7.242.313-15.571-3.226-22.582l1.062,3.711 8.301-2.383c8.398-4.699 26.258-10.395 23.574-19.754-2.988-10.418-18.265-23.047-29.39-19.856-.532.153-.418,9.868-.418,9.868-.707,2.879-4.262,4.472-6.18,5.785 .605-1.895 1.258-3.61.398-6.614-1.519-5.296-7.375-8.394-12.675-6.875-2.649.758-19.086,15.411-18.274,18.235 3.391,11.832 14.945,9.476 18.188,20.777 4.254,14.832 9.25,43.594-5.051,47.696-16.777,4.808-27.621-12.34-44.395-7.528-3.886,1.113-2.57,4.367-1.785,7.774l2.297-.661-2.047-1.132" fill="#e19772"/>
   <path d="m498.69 36.797c3.422-8.0508-7.343-24.266 3.957-27.508 3.711-1.0625 8.231 2.039 9.09 5.039 2.383 8.3008-2.679 19.305-11.258 22.719l-1.789-0.25" fill="#e5ec20"/>
   <path d="m377 151.58c-5.808-4.262-16.285-9.473-18.871-18.48-1.57-5.473 1.48-8.832 6.25-10.2 4.238-1.214 7.422 1.887 8.586 5.946 2.43 8.476 1.602 14.258 4.035 22.734" fill="#e5ec20"/>
   <path d="m386.238,317.098-12.472-7.508 3.175-.91 3.891,1.562c-.254-2.222-.609-3.457-1.57-5.476l9.359-2.684 3.129,1.586-5.203-6.148c2.019.375 3.937.398 6.031.371-4.754-8.575-11.14-11.52-15.285-20.653l2.953,1.637c5.883,2.52 8.18,4.535 13.18,7.305l2.953,1.64c-2.731-4.187-4.852-6.254-8.16-7.793 1.765-.504 2.953-1.035 4.566-2.07l-3.004-1.816 6.18-1.77c-1.363-3.433-9.598-10.816-6.418-11.73 9.18-2.633 29.996,21.976 33.789,29.871-3.281-.782-6.156-1.485-9.461-.344l-5-2.773c1.063,3.71 1.012,3.535 2.984,7.746l1.317,4.589-8.836-4.152c2.074,3.227 2.199,3 4.07,5.52l-6.183,1.773c.382,1.992.609,3.457 1.824,6.356l-7.27-1.356 1.571,5.477-5.473,1.57c-.656.379-.957,1.992-1.84,2.246-3.711,1.063-10.754-2.84-14.062-4.379l9.265,2.313" fill="#fff200"/>
   <path d="m418.324,254.387-7.703-8.875c4.469,1.586 7.824,3.301 11.133,6.172l-1.774-6.18 3.887-1.113c-1.644-2.395-1.668-3.153-2.277-5.274-.504-1.765.148-3.48.223-5.222l2.953,1.636-2.481-8.652c1.668.48 3.207,1.184 4.695,1.711-2.023-7.063 2.438-9.488 4.454-14.461l10.621,25.047c.156,3.203.84,4.918 2.23,7.769-8.004-1.91-1.64.278-6.34-4.105-.328.855-1.586,1.793-2.093,1.363l-2.036,8.227c-2.019-.375-3.507-.907-5.453-1.684l2.028,7.063-3.887,1.113c-4.848-4.914-7.574-7.766-12.957-12.527l4.777,7.992" fill="#fff200"/>
   <path d="m445.355,231.348-2.835-9.887c2.851,1.285 4.847,2.242 7.269,4.031 9.965-4.578 28.664-4.015 39.164-2.058l15.934-13.743 6.867,2.618c.957-1.993-3.742-5.043-1.621-5.649 2.648-.762 4.289,1.633 6.867,2.617 3.039-11.382 5.613-13.078 15.121-16.57l-2.43-8.473c2.567-7.043 1.301-14.132.582-24.629l-2.023-7.066c5.207,10.164 10.059,19.094 13.961,32.691l-18.231-63.57c9.219,10.16 20.196,36.442 26.696,50.442l2.027,7.062-4.863-16.953 1.621,5.652 7.074,8.672-5.672-19.777 7.075,8.676-3.649-12.715 9.297,11.094c14.129-4.051 5.734,3.324 10.305,9.273 1.183-3.203 2.797-5.578 5.445-7.676l2.023,7.067 6.047-10.911 5.653-1.617 6.261,5.848 4.438-5.859c4.344,3.148 6.894,6.05 10.707,10.687l2.008-14.332 2.429,8.477c3.399-6.137 7.004-12.903 3.813-24.028 3.406,1.887 5.808,4.258 7.476,10.086 1.723,6.004 1.676,9.84 4.457,15.539 3.278-5.906 4.079-12.445.989-23.215 2.195,1.664 5.097,1.786 5.859,4.434 0,0 .141,15.82.215,16.754l2.621-6.863 2.43,8.476 2.617-6.867c1.57,4.137 2.379,6.961 3.242,11.301l4.027-7.27c3.543,8.348 4.707,13.746 6.485,22.602-9.293-7.082-2.981-3.731-11.106-1.403-4.589,1.317-5.308-9.179-9.898-7.863-19.25,5.52.887,5.098-8.281-2.211l-12.711,3.645-2.836-9.891-10.485,16.766c-3.66-2.77-6.261-5.848-8.289-12.91-2.898,3.886-5.062,6.996-7.457,11.312l-2.027-7.062-14.324,8.691-2.024-7.063-4.031,7.27-7.269-4.027c-2.012,7.648-15.75,24.39-20.766,28.886-1.82-2.347-3.262-6.711-6.266-5.847-2.648.758-3.66-2.774-5.859-4.438l1.621,5.653-8.477,2.429-3.023,5.453c-4.738,4.801-4.453,10.45-10.281,12.121-2.653.762-3.664-2.769-5.86-4.433l1.621,5.648-7.273-4.027-5.848,6.262c-24.355-2.953-2.523-.805-15.945,3.043-12.359,3.547-25.383,3.457-33.719-5.618l-2.023-7.066 5.058,12.309" fill="#fff200"/>
   <path d="m67.977 123.61c-4.9258-3.175-14.195-12.172-16.219-19.238-1.3672-4.7656 2.4883-9.3125 7.4336-10.73 7.0625-2.0234 15.52 0.1368 17.543 7.1995 3.0898 10.773-4.8321 13.808-7.75 22.289l-1.0078 0.48" fill="#fff200"/>
   <path d="m180.39 194.39c-13.657-4.301-29.934-5.75-35.707-25.879-1.469-5.121 2.683-15.297 3.918-21 3.64-17.289 8.898-32.938 2.367-55.719-1.973-6.8868-3.594-12.535-5.164-18.012-0.91-3.1757-3.438-6.6562-3.469-10.09-0.059-9.5391 21.758-23.438 32.883-26.629 21.543-6.1758 38.176-2.1563 47.652 12.902l4.539 23.156 3.547 12.363c1.363 3.4297 2.805 6.457 4.043 8.7773l4.305 15.008 5.387 12.789c1.472 7.797 1.25 14.355 3.531 22.304 2.531 8.829 10.355 10.789 13.344 21.207 3.898 13.598-7.68 20.547-20.215 24.145-8.125 2.328-15.067 1.453-21.297 1.711-17.184 0.723-28.11 3.281-42.645 0.57l2.981 2.395" fill="#45737e"/>
   <path d="m179.285,191.137c-19-2.379-49.109-16.375-13.297-27.977 22.215-7.125 40.442-6.707 59.711-6.402 8.254.637 11.621.883 18.055,2.062 5.184,2.848 8.137,4.016 13.59,7.039 7.254,14.114-2.969,15.59-15.922,23.352-3.152,1.891-.32,6.617 2.832,4.727 16.41-9.833 26.316-14.114 17.129-31.993-5.453-3.023-10.063-5.98-15.52-9.004-6.984-1.3-11.324-1.761-19.875-2.418-19.894-.316-38.867-.316-61.804,7.04-46.426,15.039-10.012,34.316 14.625,37.402 2.55.32 3.031-3.508.476-3.828" fill="#231f20"/>
   <path d="m153.48 166.56c3.59 7.187 10.985 9.652 17.575 10.633 17.793 2.73 32.402 3.703 56.597-1.899 6.989-1.621 14.758-2.512 22-4.59 2.297-0.656 2.367-3.734 1.711-6.031-3.242-11.301-19.109-4.648-24.465-11.332l-8.554-53.156c-2.453-6.5589-6.266-9.8636-12.801-7.9886-7.238 2.0781-2.887 17.262-1.367 22.559l4.152 14.48c0.891 7.774 3.352 22.356-3.535 24.329-11.477 3.293-19.277 2.089-30.754 5.379-6.887 1.976-14.734 4.609-18.664 8.218l-1.895-0.601" fill="#e5ec20"/>
   <path d="m500.14 249.89c6.226-8.36 11.539-18.313 17.406-24.399 12.984-13.683 23.801-17.918 40.109-26.988 23.801-14.633 63.098-19.602 97.645-12.449 13.543 2.14 22.629 4.761 37.562 10.195 3.125 1.137-4.875 6.84-4.929 3.516-0.528-30.301-29.176-52.512-52.371-73.075-48.012-35.976-123.22-58.902-178.54-51.472-32.453 4.2968-101.8 29.238-60.575 72.668 0.676 0.711-0.39 1.722-1.066 1.011-43.867-46.207 26.238-75.664 60.766-80.234 56.894-7.6407 134.69 15.34 184.06 52.34 24.696 21.891 54.52 46.375 55.074 78.633 0.059 3.328-1.8 4.656-4.929 3.519-14.414-5.25-23.192-8.347-36.266-10.418-32.715-6.773-70.18-1.75-92.715 12.106-15.558 8.656-26.121 12.672-38.508 25.726-5.64 5.848-10.945 14.961-16.925 23.106l-5.793-3.785" fill="#231f20"/>
   <path d="m413.75 193.78s21.332 8.407 22.77 8.762c13.679 3.719 36.441 3.117 53.921-1.895 6.536-1.875 22.356-6.027 25.504-11.707 2.895-5.226 0.797-9.211-0.168-15.242-1.957-14.156 0.606-27.883-3.496-42.187l-6.078-21.192c-4.457-15.539-24.312-40.804-35.824-44.957-8.481-2.918-27.734-1.4102-37.801 1.4765-31.43 9.0118-32.781 22.969-25.433 53.922 2.863 11.984 5.457 31.687 4.683 42.996-0.422 7.191-3.789 22.105-1.965 28.465 0.407 1.41 2.477 1.965 3.887 1.558" fill="#45737e"/>
   <path d="m436.93 79.352c-5.61-4.8907-9.692-1.8086-15.344-0.1875 6.683-2.6797 12.234-4.6563 19.777-5.6719l-2.023-7.0625-14.129 4.0508c-8.649 7.832-26.785 14.559-18.137 32.718l7.344 78.926c17.562-24.723-9.543-54.598-5.133-87.203 1.277-9.5391 15.813-12.18 27.645-15.57" fill="#6aaabe"/>
   <path d="m416.977,191.625c21.808-11.855 51.074-28.309 78.566-26.855 12.992.648 25.926,9.328 17.461,20.66-6.211,8.144-31.746,13.593-44.734,15.863-15.063,2.465-28.989,2.531-38.918-2.969-.856-.476-1.567.809-.711,1.285 10.558,5.852 24.707,10.829 40.73,8.204 14.313-2.5 42.215-9.313 49.059-18.29 12.265-16.421-3.68-31.152-22.512-32.089-28.785-1.524-59.441,15.644-82.273,28.058-4.09,2.223-.758,8.356 3.332,6.133" fill="#231f20"/>
   <path d="m426.96 183.88c16.664 10.125 49.285 4.594 74.008-2.496 6.535-1.871 12.965-5.438 11.191-11.617-2.226-7.77-10.855-5.868-17.945-5.938-0.864-4.34-1.621-5.652-2.684-9.359-1.773-6.18-6.445-9.809-8.847-16.192-5.567-14.074-7.551-34.336-21.329-33.058 1.121 13.246 8.961 31.254 12.153 42.379 7.746 27.015-41.34 21.793-47.934 40.117l3.18-0.91-1.793-2.926" fill="#e5ec20"/>
   <path d="m306.52,436.391c-15.008,16.644-38.973,10.644-49.149-5.852-11.047-17.973 1.164-33.726 16.945-40.332 8.004-.148 14.063.711 19.524,2.902 12.637,4.817 22.351,22.829 13.933,34.563-.57.797.622,1.652 1.196.855 9.894-13.793 2.269-36.254-12.586-41.918-6.203-2.492-14.379-3.281-23.481-3.113-19.035,7.969-33.234,28.063-19.914,49.738 11.262,18.262 38.016,22.559 54.625,4.141 .657-.727-.437-1.711-1.093-.984" fill="#231f20"/>
   <path d="m311.059,437.691c1.492,21.852 9.914,35.067 29.347,33.473 26.465-3.16 36.367-21.914 34.457-43.301-1.312-8.113-1.933-10.703-5.062-16.679-5.098-6.758-12.949-8.473-20.352-9.301-10.476,3.004-18.336,7.293-23.226,13.476-4.508,4.481-2.868,3.575-6.723,7.563-2.043,2.113 1.129,5.18 3.172,3.066 3.812-3.949 2.801-2.656 7.391-7.203 4.339-5.558 10.445-9.926 19.75-12.59 6.023.672 11.042,2.676 15.175,8.035 2.68,5.172 2.692,7.161 3.864,14.387 1.718,19.254-4.829,37.692-28.649,40.535-17.906,1.473-24.652-11.539-26.027-31.675-.141-2.075-3.258-1.864-3.117.214" fill="#231f20"/>
   <path d="m297.66 422.76c0.559 1.949 2.594 3.078 4.547 2.519s3.078-2.593 2.519-4.547-2.593-3.078-4.546-2.515-3.079 2.594-2.52 4.543" fill="#231f20"/>
   <path d="m325.03 430.2c0.559 1.949 2.594 3.078 4.543 2.52s3.078-2.594 2.52-4.543-2.594-3.078-4.543-2.52-3.078 2.594-2.52 4.543" fill="#231f20"/>
   <path d="m273.59,435.555c4.773-8.61 15.293-6.957 16.84,3.375-7.672,2.75-10.375,1.746-15.407-1.043-.855-.477-1.57.808-.71,1.285 5.417,3.004 8.824,3.305 17.093.34-1.804-12.02-13.547-14.688-19.101-4.668-.477.855.812,1.57 1.285.711" fill="#231f20"/>
   <path d="m344.566,460.543c-8.242.805-9.164-4.301-6.929-9.785 .371-.906-.992-1.461-1.36-.555-2.703,6.633-1.543,12.777 8.434,11.801 .973-.094.832-1.559-.145-1.461" fill="#231f20"/>
   <path d="m347.809,452.102-1.762,5.668c-.621,1.988 2.664,2.793 3.031.742l1.051-5.84c.281-1.57-1.848-2.09-2.32-.57" fill="#231f20"/>
   <path d="m310.164,398.199c-.762-11.465 6.27-9.523 15.441-8.363 2.75,2.789 4.083,4.598 4.602,8.68 .418,3.277 5.336,2.652 4.922-.629-.707-5.539-2.789-10.332-6.524-14.121-13.121-1.657-23.378-1.711-22.289,14.687 .168,2.567 4.02,2.313 3.848-.254" fill="#231f20"/>
   <path d="m338.34 383.22c4.265 8.679 11.242 15.152 17.136 7.371 2.665-3.516-2.609-7.508-5.273-3.992-3.012 3.976-5.727-0.891-7.906-5.325-1.297-2.636-5.254-0.695-3.957 1.946" fill="#231f20"/>
   <path d="m333.68,379.32c-.028-6.34 1.812-6.882 7.566-6.363 4.016,1.481 6.969,2.738 10.125,5.957 2.574,2.625 6.508-1.234 3.934-3.859-3.875-3.95-7.328-7.016-12.512-8.907-10.852-1.058-12.832,1.915-12.789,13.188 .008,2.449 3.684,2.434 3.676-.016" fill="#231f20"/>
   <path d="m268.941,376.402c4.106-11.566 12.668-22.804 28.957-27.472 8.297-2.383 14.188-1.727 21-1.996 5.375.117 10.18.605 14.575,1.75 21.894,4.004 49.902,29.254 39.14,57.671-.781,2.063 2.313,3.235 3.094,1.172 11.645-30.754-17.629-58.632-41.32-62.964-4.692-1.223-9.762-1.731-15.52-1.856-7.137.293-13.328.207-21.98,2.688-17.274,4.953-24.977,18.25-29.332,30.519-.328.922 1.058,1.414 1.386.488" fill="#231f20"/>
   <path d="m374.656,420.41c12.739-16.64 24.535-43.699 7.285-68.855-9.351-7.176-16.757-10.481-28.839-12.735-1.942-.359-1.325,3.993.441,3.106 7.16-3.606 9.125-5.047 9.324-11.309 .012-.461-.332-1.316-.66-1.64-3.609-3.555-7.094-4.743-11.863-6.766-.903-.383-1.477.969-.574,1.352 4.425,1.878 5.996,5.261 9.347,8.558 .328.32-.644-2.101-.656-1.644-.145,4.543-1.207,5.878-6.406,8.492-1.762.89-1.5,2.742.441,3.101 11.348,2.118 17.106,6.114 25.891,12.856 16.261,23.719 7.113,48.902-4.899,64.59-.593.777.571,1.672 1.168.894" fill="#231f20"/>
   <path d="m261.977,376.102c5.687-16.524 15.968-27.688 40.39-34.692 7.293-.597 12.641-.664 18.406-.078 5.575.465 9.832.383 14.465,1.492 1.668.399 2.27-2.101.602-2.5-4.836-1.16-8.793-3.433-14.586-3.929-6.047-.614-12.125-.469-19.774.16-25.746,7.383-34.898,21.652-40.89,39.07-.32.926 1.07,1.402 1.387.477" fill="#231f20"/>
   <path d="m342.465,340.867c-3.27-1.812-4.981-4.801-6.848-8.91-.722-1.594-2.828,4.391-1.265,3.602 6.269-3.164 9.093-5.012 14.261-3.079 2.293.86 3.582-2.582 1.289-3.441-6.414-2.398-10.254-2.328-18.035,1.598-1.562.789-1.992,2.008-1.265,3.601 2.3,5.071 6.488,6.801 10.527,9.039 1.609.891 2.945-1.519 1.336-2.41" fill="#231f20"/>
   <path d="m337.719,325.742c-2.688-2.926-3.578-5.043-5.781-8.847-.711-1.231-2.176,3.304-.879,2.726 2.218-.996 3.531-1.016 5.742-1.461 5.031.184 8.906-.476 8.054,4.09-.312,1.688 2.215,2.16 2.528.473 1.269-6.809-3.238-8.45-10.93-8.774-2.687.567-4.449,1.02-6.973,2.149-1.296.582-1.593,1.5-.882,2.726 2.355,4.071 4.082,5.778 6.957,8.906 1.324,1.442 3.488-.546 2.164-1.988" fill="#231f20"/>
   <path d="m352.344,319.707c1.797-6.926 8.886-2.227 13.73,1.484 1.172.895.512-4.273-.398-3.109-1.442,1.852-2.406,3.297-4.278,4.91-2.136,1.84.625,5.039 2.758,3.199 2.114-1.824 3.367-3.308 4.996-5.394 .911-1.164.774-2.211-.398-3.109-6.465-4.95-15.969-7.731-18.367,1.511-.336,1.305 1.617,1.813 1.957.508" fill="#231f20"/>
   <path d="m286.504,466.84-2.215,5.734c-2.672,4.821-3.57,10.598-10.824,11.094-14.817-2.766-26.676-7.781-38.844-14.527-7.219-5.555-4.344-18.243-3.414-25.77 2.699-2.891 3.156-4.699 6.883-6.473 9.269.34 9.656-.621 17.074,1.743 .934.3 1.379-1.102.445-1.399-7.785-2.484-8.726-4.531-18.461-4.887-4.343,2.071-6.91,5.719-10.058,9.094-1.027,8.34-1.676,23.375 6.328,29.528 12.371,6.859 24.852,12.062 39.918,14.875 8.523-.582 11.656-5.887 14.789-11.547l2.016-6.176c.797-2.445-2.711-3.688-3.637-1.289" fill="#231f20"/>
   <path d="m292.32,463.5-.125-9.547-4.445-6.082c-1.641-2.137-4.777.012-3.332,2.285l3.434,5.418 1.914,8.219c.386,1.668 2.578,1.422 2.554-.293" fill="#231f20"/>
   <path d="m302.207,470.754c-5.703,8.258-9.437,16.656-2.215,24.516 5.922,4.347 10.285,6.503 17.11,8.628l9.488,3.446c4.601.773 9.433.871 13.91,1.871 5.98-.746 6.832-.414 11.48-1.75 8.731-8.016 7.872-17.016 14.668-25.809 .551-.711.696-1.847.34-2.676-1.941-4.55-5.027-6.175-9.047-9.066-2.187-1.57-4.546,1.711-2.359,3.285 3.207,2.305 4.957,4.242 6.508,7.875 .355.824.89-3.386.344-2.676-6.891,8.915-2.477,19.379-11.325,27.508-4.535,1.301-4.839.774-10.519,1.473-4.453-.988-8.711-1.731-13.348-2.512l-9.304-3.402c-6.583-2.047-10.915-3.516-16.606-7.692-6.148-6.695-.051-13.273 4.805-20.304 1.812-2.621-2.121-5.336-3.93-2.715" fill="#231f20"/>
   <path d="m309.191,466.969c.297-1.926 1.836-2.172 3.344-3.309l2.742-3.914c.582-.789.348-1.316-.632-1.328l-5.332-.07c-2.633,1.984-3.598,4.652-4.114,8.004-.41,2.66 3.582,3.277 3.992.617" fill="#231f20"/>
   <path d="m308.172,490.617c6.633,3.672 31.449,20.653 37.043,8.895 2.762-5.875 17.215-23.532 3.707-27.067 0,0-5.25-.336-5.715-.363-6.519-1.269-22.262-10.816-29.133-4.148-4.051,3.953-4.59,9.918-6.824,13.949l-1.133,4.445c-.754,3.094 3.75,4.297 4.617,1.235l1.082-3.836c2.047-3.696 1.75-8.879 5.461-12.504 5.989-5.809 19.715,3.621 25.36,4.675l5.414,1.043c10.902,2.856-3.102,16.653-5.328,21.391-5.141,10.813-27.743-5.625-33.836-9-.86-.477-1.571.809-.715,1.285" fill="#231f20"/>
   <path d="m270.078,474.371c-9.867-3.094-14.566-7.398-23.015-10.664-4.868-3.859-6.274-9.035-6.282-16.465 0-1.066-2.64,1.969-1.586,1.821 13.743-1.899 25.61,3.671 34.59,8.589 .367,6.157-.117,6.746-5.101,10.536-2.047,1.554.289,4.628 2.336,3.07 6.316-4.801 6.429-5.867 5.828-14.668-.032-.473-.387-1.027-.801-1.258-9.586-5.312-22.789-11.922-37.356-9.906-1.054.144-1.586.754-1.586,1.82 .008,8.621 2.704,14.527 8.512,19.024 8.59,3.273 14.141,6.406 24.02,9.503 .933.293 1.375-1.109.441-1.402" fill="#231f20"/>
   <path d="m284.22 477.83c3.406 1.301 4.301 1.965 7.308 3.188l4.063 1.804c2.566 1.16 4.43-1.445 2.445-3.445l-3.613-3.641c-3.051-1.242-4.781-1.734-8.242-3.054-3.434-1.309-5.395 3.839-1.961 5.148" fill="#231f20"/>
   <path d="m289.94 469.85c2.742 1.047 4.937 2.047 7.761 2.664l3.211 1.148c4.387 1.547 6.805-4.785 2.485-6.523l-3.657-1.473c-2.476-0.539-4.976-1.25-7.383-2.168-4.23-1.613-6.652 4.738-2.417 6.352" fill="#231f20"/>
   <path d="m243.24 429.13c-16.707 1.371-15.125-19.582-10.98-28.981 2.781-4.214 4.015-6.558 6.843-10.597 8.168-5.039 12.856-6.516 19.672-2.738 2.891 1.605 5.297-2.735 2.403-4.336-8.641-4.789-15.797-3.633-26.149 2.757-2.863 4.09-5.258 7.754-8.07 12.024-5.133 11.629-4.137 36.68 16.535 34.984 2.074-0.168 1.82-3.281-0.254-3.113" fill="#231f20"/>
   <path d="m356.258,471.52c5.594,2.496 9.226,4.789 15.383,5.168 19.664,1.203 21.121-24.239 20.23-37.868l-2.258-7.699c-2.996-4.043-6.554-6.926-11.14-8.676-1.258-.48-1.981,1.41-.719,1.891 4.047,1.543 5,5.301 7.648,8.867l1.793,6.43c.801,12.277 2.285,36.121-15.429,35.039-5.907-.367-9.543-2.102-14.911-4.492-.894-.399-1.492.941-.597,1.34" fill="#231f20"/>
   <path d="m315 502.16c-23 8.25-48.832-4.266-59.508-22.894-1.824-3.188-6.605-0.45-4.781 2.738 11.523 20.113 40.262 31.312 65.094 22.406 1.5-0.539 0.691-2.785-0.805-2.25" fill="#231f20"/>
   <path d="m264.418,484.031c1.789,2.074 3,3.571 5.051,5.168 3.73,2.824 7.062,3.926 11.226,6.235 5.715,2.097 11.274,3.472 17.012,3.597 1.836.039 1.898-2.715.059-2.754-5.414-.117-10.348-1.886-15.692-3.847-3.961-2.184-6.996-3.133-10.582-5.844-1.898-1.481-3.609-2.195-5.265-4.113-1.039-1.207-2.848.355-1.809,1.558" fill="#231f20"/>
   <path d="m398.383,362.836c-11.32-12.441 3.293-24.434 8.5-32.055l3.328-3.125c2.766-2.636 1.297-6.492-2.367-5.414l-3.528,1.035c-4.921-.211-7.718-1.773-12.191-3.55l-6.551-4.516c-5.199-1.551-8.269-2.805-13.515-4.531l-9.829-4.285c-1.347-.586-2.296.941-1.16,1.875l8.754,7.207c5.305,1.742 8.293,2.957 13.543,4.523l6.582,3.953c5.016,1.996 8.938,3.856 14.461,4.09l3.942.426c3.562.398.296-7.813-2.368-5.414l-3.933,3.543c-5.852,8.57-17.887,23.617-5.16,37.601 .906.996 2.398-.363 1.492-1.363" fill="#231f20"/>
   <path d="m311.23,334.117c-2.054-8.48-1.867-12.168-2.921-19.801-1.735-4.742-3.098-4.543-3.942-8.793-.191-.964-2.176,1.59-1.191,1.536 15.461-.84 30.949-.614 44.14,1.847l3.247.512c2.781.441 3.527-3.559.777-4.152l-3.215-.692c-13.465-2.511-29.309-.941-45.09-.086-.984.055-1.383.571-1.191,1.535 .898,4.52-.403,4.793 1.293,9.575 1.058,7.617 1.707,10.875 3.808,19.558 .692,2.856 4.977,1.817 4.285-1.039" fill="#231f20"/>
   <path d="m383.645,478.328c10.683,43.961 8.695,52.617 21.796,78.227 12.329,23.011 28.516,47.508 39.129,69.867 15.235,11.289 28.52-11.531 32.801-24.961 4.508-11.402 4.426-19.512 5.852-33.531 .132-1.34-1.875-1.547-2.012-.203-1.379,13.57-4.664,20.843-9.027,31.882-3.778,11.852-12.657,35.528-26.098,25.567-10.625-22.387-25.371-47.117-37.715-70.156-12.988-25.383-12.172-33.594-22.766-77.168-.316-1.309-2.281-.832-1.96.476" fill="#231f20"/>
   <path d="m221.39 404.69c-73.664 21.125-123.32 18.153-181.26 18.942l-7.1641-5.059c11.66-21.031 27.711-35.472 48.82-49.804 5.6718-2.77 8.7382-4.649 14.465-7.243 3.0117-1.363 0.9648-5.882-2.0469-4.519-5.7734 2.617-9.2695 4.527-14.992 7.32-21.766 14.781-37.578 33.172-49.598 54.86l9 8.652c58.188-0.789 109.31-0.172 183.28-21.383 1.176-0.336 0.668-2.102-0.507-1.766" fill="#231f20"/>
   <path d="m306.395,302.875c-28.403-36.613-8.493-78.047 10.937-105.25 12.106-18.328 28.856-30.703 53.438-26.117l24.324,15.203c1.043.644 2.019-.648 1.109-1.465l-22.543-20.281c-27.91-5.207-48.637,7.691-62.383,28.5-20.398,28.558-36.441,72.324-6.625,110.762 .903,1.16 2.645-.192 1.743-1.352" fill="#231f20"/>
   <path d="m424.33 319.64c21.387-32.289 28.766-52.586 14.438-102.55l-12.473-11.969c-2.332-2.168-5.504 0.742-3.52 3.23l9.758 12.239c13.731 47.883 9.692 66.375-10.808 97.324-1.149 1.734 1.457 3.461 2.605 1.723" fill="#231f20"/>
   <path d="m19.473 263.07c18.281-18.761 35.43-23.621 66.938-28.336l50.453-0.144c2.575-8e-3 2.629-3.773 0.059-3.859l-50.891-1.661c-32.637 4.887-49.727 12.516-68.66 31.95-1.3711 1.402 0.7344 3.457 2.1016 2.05" fill="#231f20"/>
   <path d="m26.527 240.53c12.555-16.582 40.02-17.218 62.25-19.078l12.016-1.422c1.949-0.23 1.859-2.843-0.098-2.937l-12.211-0.594c-22.945 1.922-50.312 5.918-63.274 23.031-0.664 0.879 0.6524 1.879 1.3164 1" fill="#231f20"/>
   <path d="m38.98 215.82 18.938-6.832 22.734 0.789c3.0586 0.094 3.25-4.437 0.1915-4.589l-23.699-1.188-19.805 7.336c-2.9882 1.106-1.3554 5.566 1.6407 4.484" fill="#231f20"/>
   <path d="m587.266,439.695c-5.309-11.847-9.746-27.312-14.953-40.144-12.735-30.285-14.891-33.242-31.153-50.946-.996-1.082-2.617.407-1.625,1.489 15.977,17.394 16.192,21.386 28.703,51.14 5.215,12.856 11.7,27.496 17.016,39.364 .601,1.34 2.613.437 2.012-.903" fill="#231f20"/>
   <path d="m595.598,424.871c-5.684-9.914-11.121-25.262-15.231-39.601-6.472-22.575-4.012-12.54-16.394-30.704-.551-.808-1.766.02-1.215.829 12.047,17.671 7.25,9.078 13.547,31.039 4.191,14.621 10.945,29.789 16.742,39.902 .973,1.699 3.523.238 2.551-1.465" fill="#231f20"/>
   <path d="m599.027,404.102-27.476-57.829c-.84-1.773-3.488-.523-2.656,1.254l27.14,57.985c.934,2 3.938.582 2.992-1.41" fill="#231f20"/>
   <path d="m38.5273,446.238 33.918.883c2.4492.067 2.5547-3.594.1055-3.672l-33.9141-1.07c-2.5703-.078-2.6836,3.789-.1094,3.859" fill="#231f20"/>
   <path d="m43.9648,461.5c11.8125,2.793 15.6954,1.711 30.5391,2.281 .9805.039 1.0352-1.429.0586-1.468-14.5586-.559-18.043-2.184-29.625-4.926-2.7422-.649-3.7148,3.465-.9727,4.113" fill="#231f20"/>
   <path d="m47.859 477.43c9.6445 4.121 16.59 5.234 27.086 6.16 3.1719 0.281 3.5938-4.477 0.4219-4.758-9.8945-0.871-16.324-2.418-25.414-6.305-3.2656-1.394-5.3593 3.504-2.0937 4.903" fill="#231f20"/>
   <path d="m298.473,309.715c-19.118,1.973-33.942,1.762-49.965,10.445-12.617,6.903-18.887,11.676-29.082,6.028-13.891-12.973-8.172-45.356-7.442-63.84 .246-7.223-.445-16.762-1.113-24.493-.246-2.808-4.453-2.441-4.211.364 .656,7.558.793,16.894.551,23.953-.75,19.027-3.051,51.988 11.25,65.34 11.203,6.211 18.82,5.074 32.684-2.512 15.406-8.352 29.339-9.551 47.722-11.449 2.559-.262 2.164-4.102-.394-3.836" fill="#231f20"/>
   <path d="m226.477,306.496c-1.973-13.508-.293-25.391-.356-37.543 .426-9.992 1.152-16.07.172-26.242l-.664-5.965c-.281-2.555-3.75-2.437-3.856.133l-.246,6.144c.957,9.915.235,16.102-.179,25.84 .062,12.285.953,24.297 2.945,37.953 .211,1.454 2.395,1.137 2.184-.32" fill="#231f20"/>
   <path d="m225.199,309.613c6.328,2.414 13.637,3.067 23.836.746 9.981-.929 16.258-2.355 26.469-4.511 9.832-2.817 6.605-2.266 14.144-3.309 2.668-.367 2.118-4.371-.55-4.004-7.918,1.098-4.602-.992-14.922,1.969-9.973,2.105-16.262,3.516-26.008,4.426-9.199,2.093-16.082,3.769-21.789,1.593-2.059-.785-3.238,2.305-1.18,3.09" fill="#231f20"/>
   <path d="m205.738,235.793c-8.508-1.051-17.75-.34-22.191-15.828 1.246-6.695.035-13.09 11.59-16.402l5.871.785c3.285.379 4.133-4.133.91-4.875l-7.051-1.625c-14.933,4.281-15.422,13.734-17.039,22.386 5.285,18.426 17.383,17.59 27.504,18.84 2.188.274 2.594-3.008.406-3.281" fill="#231f20"/>
   <path d="m227.863,236.484c10.535-9.675 11.981-15.89 9.852-31.293-5.527-10.793-19.469-7.578-29.395-11.363-3.664-1.394 11.442,4.363 15.106,5.762 7.238,2.758 4.383-.418 8.414,7.453 1.785,12.914 1.375,17.539-7.457,25.652-2.524,2.321.953,6.11 3.48,3.789" fill="#231f20"/>
   <path d="m143.6 172.97c2.524-30.297 19.622-50.422 9.122-87.039-2.739-9.5391-5.715-13.379-10.25-22.402 7.246-13.07 20.773-18.656 39.734-24.094 12.461-2.0977 18.586-0.9492 27.914 0.7891 7.664 1.9336 7.699 3.3086 11.156 10.75 2.5 21.547 12.508 44.762 20.321 61.882 3.964 9.278 6.027 19.442 7.265 30.243l0.875 11.027c0.078 0.976 1.153 1.117 1.461 0.184l3.68-11.176c-1.305-11.403-3.551-22.934-7.735-32.727-7.613-16.68-18.543-39.824-20.98-60.812-4.531-9.7618-4.652-12.93-14.707-15.469-10.051-1.875-17.207-3.0351-30.629-0.7695-20.598 5.9062-34.707 15.887-42.578 30.086 4.363 8.6836 6.543 14.832 9.176 24.008 10.261 35.793-3.188 55.75-5.657 85.367-0.101 1.223 1.731 1.375 1.832 0.153" fill="#231f20"/>
   <path d="m75.051 129.18c-3.2383-5.106-33.801-26.227-18.344-34.211 10.461-5.3672 18.137 2.914 18.961 12.937-5.4141 6.633-8.0782 10.004-10.164 18.324-0.9492 3.801 4.75 5.231 5.7031 1.43 1.8399-7.332 5.2227-12.191 9.9922-18.035-1.1679-14.25-12.23-27.348-27.098-19.719-17.852 9.2187 14.726 34.953 18.469 40.848 1.0469 1.656 3.5313 0.082 2.4805-1.574" fill="#231f20"/>
   <path d="m407.43,332.316 8.761,3.84c13.094,3.11 20.7,6.637 33.766,10.324 9.504.864 15.801,2.008 25.008,4.469 15.535-11.875 4.254-39.777 1.707-60.918-.641-6.937-2.504-10.797-3.5-17.633-.141-.968-1.594-.757-1.453.211 .988,6.786-.067,11.008.57,17.891 2.438,20.25 17.109,46.809 2.227,58.184-9.426-2.52-14.125-5.094-23.86-5.981-13.129-3.703-20.121-7.078-33.273-10.203l-8.61-3.406c-2.16-.856-3.472,2.285-1.343,3.222" fill="#231f20"/>
   <path d="m414.207,322.543c11.57,2.996 18.387,5.625 29.902,8.441 27.27,5.086 21.125-19.652 19.743-42.039-1.215-4.238-2.325-7.195-3.539-11.433-.61-2.117-3.786-1.207-3.18.91 1.215,4.242 1.726,6.933 2.941,11.172 1.235,20.07 9.137,42.894-15.308,38.34-11.5-2.813-18.317-5.067-29.868-8.059-1.777-.461-2.468,2.207-.691,2.668" fill="#231f20"/>
   <path d="m474.96 286.3s29.977-10.051 31.602-15.864c6.273-22.253-14.543-30.816-25.907-35.148-2.23-0.852-3.816-0.434-4.269 1.91l-1.414 7.324c-0.512 2.645 2.394 3.754 3.777 1.442l3.816-6.41c1.028-1.719-6.14 1.199-4.265 1.914 9.238 3.523 27.699 9.289 22.601 27.382-1.394 4.989-27.316 13.262-27.316 13.262-2.801 0.891-1.414 5.121 1.375 4.188" fill="#231f20"/>
   <path d="m456.094,275.727c-7.434-2.723-9.867-8.782-14.457-15.375-.821-1.184-.871,4.992-.028,3.82 2.422-3.371 4.657-6.793 10.61-10.285 1.797-1.055.219-3.746-1.578-2.696-6.871,4.028-11.606,5.231-14.403,9.122-.84,1.167-.851,2.632-.027,3.816 5.187,7.461 10.269,11.793 18.68,14.875 2.187.801 3.386-2.477 1.203-3.277" fill="#231f20"/>
   <path d="m466.461,266.16c12.629-5.906 8.543-2.504 15.195-11.883 .715-1.004.828-2.437.25-3.527l-3.519-6.613c-2.071-3.895-7.852-.91-5.879,3.035l3.359,6.699c.535,1.067.938-4.5.246-3.527-5.609,7.91-1.183,6.179-11.832,11.156-3.105,1.453-.926,6.113 2.18,4.66" fill="#231f20"/>
   <path d="m461.754,253.113c-21.676-7.843-34.324-21.976-44.711-49.156-.688-2.394-1.254-6.715-1.672-8.816-.883-4.446-7.551-3.121-6.668,1.324 .445,2.238.992,7.152 1.727,9.699 11.07,28.981 26.898,42.211 50.011,50.578 2.418.875 3.731-2.754 1.313-3.629" fill="#231f20"/>
   <path d="m500.23,250.535c9.391-13.609 21.524-21.25 23.051-40.14-.554-5.403-1.617-12.008-3.195-17.516l-3.625-2.336c-1.813-1.027-2.52-.582-2.746,1.488l-.387,3.617c1.457,5.086 2.125,9.836 2.637,14.829-1.418,17.515-10.051,25.351-18.762,37.972-1.39,2.016 1.633,4.102 3.027,2.086" fill="#231f20"/>
   <path d="m410.39 187.51c0.23-24.801 7-39.641 0.109-67.032-1.316-5.234-6.941-26.777-4.648-33.253 1.523-4.168 8.281-5.5743 11.484-8.0196 18.437-12.301 33.82-11.684 53.73-12.41 7.141 5.6679 13.426 12.453 18.672 20.504 14.567 21.847 25.254 47.875 27.871 75.414 0.094 0.973 1.555 0.836 1.465-0.141-2.691-28.301-8.383-56.761-23.351-79.218-5.672-8.6953-14.793-16.984-22.504-23.109-21.321 0.7773-40.41-0.1875-60.153 12.984-4.015 3.0703-11.523 6.5117-13.429 11.742-2.571 7.1757 3.34 31.215 4.808 37.031 6.746 26.828 4.703 41.207 4.477 65.492-8e-3 0.981 1.461 0.992 1.469 0.016" fill="#231f20"/>
   <path d="m389.125,159.625c-9.957-10.844-18.133-13.449-28.215-24.062-1.18-3.676-.097-13.168 7.11-9.868 7.218,3.36 4.414,12.532 5.421,20.633l2.555,5.235c2.18,4.25 8.543,1.128 6.434-3.157l-2.043-4.148c-1.336-10.738.297-20.774-9.27-25.231-14.844-6.82-18.793,12.637-16.371,20.188 10.199,10.738 21.465,12.055 31.535,23.019 1.742,1.895 4.582-.718 2.844-2.609" fill="#231f20"/>
   <path d="m209.844,155.465c5.59-10.078 4.203-22.285-.449-38.512-4.442-11.902-7.969-19.3671-.383-26.3358 .898-.8242-4.16-.2227-3.094.3711 8.324,4.6133 11.895,9.9067 8.73,18.2967-1.082,11.336 4.844,26.738 8.809,40.567l-2.031,5.972c-.289.938.347,1.422 1.172.887l6.558-4.25c1.012-.656.891-1.828.559-2.988-3.735-13.012-9.524-28-8.504-38.668 4.437-11.7542-1.039-18.0081-12.711-24.4769-1.066-.5937-2.195-.457-3.094.3672-9.367,8.6055-7.426,17.5077-1.941,32.2107 4.16,14.508 7.039,25.145 2.043,34.157-1.606,2.89 2.734,5.296 4.336,2.402" fill="#231f20"/>
   <path d="m240.37 213.3c5.09-6.723 6.516-13.075 10.242-19.797 2.317-4.176-3.949-7.649-6.265-3.473-3.582 6.461-4.211 12.926-9.102 19.387-2.586 3.418 2.539 7.301 5.125 3.883" fill="#231f20"/>
   <path d="m474.934,162.645c2.515-13.961.519-22.676-5.262-38.008-4.723-9.918-5.996-11.137-2.508-18.629 .793-1.703-5.172.019-3.594,1.039 4.489,2.891 7.825,6.183 10.41,15.191 6.067,21.164 11.958,33.797 25.575,41.344 2.035,1.129 3.726-1.926 1.691-3.051-12.75-7.066-16.465-19.949-22.144-39.761-3.09-10.77-7.481-14.434-12.84-17.891-1.582-1.02-2.801-.668-3.594,1.035-4.32,9.277-4.078,10.668 1.77,22.953 5.406,14.34 8.871,22.004 6.519,35.059-.48,2.652 3.5,3.367 3.977.719" fill="#231f20"/>
   <path d="m290.55 261.98c4.437-5.859 9.578-11.917 20.172-14.957 42.383-12.152 100.86 18.473 118.15 54.793 2.723-3.836 13.156-18.105 11.281-24.636-2.226-7.77-11.066-17.274-15.363-21.586-27.656-27.805-63.113-56.817-114.5-42.078-19.25 5.515-20.265 25.3-16.715 43.011l-3.023 5.453" fill="#231f20"/>
   <path d="m319.35 197.15c13.312-12.222-4.59 1.317 12.714-3.644 29.317-8.406 57.106 1.207 78.344 17.285-6.113-6.656-2.937-10.242-4.859-16.953-3.649-12.715-40.43-29.684-57.559-24.774-15.187 4.356-24.972 11.555-28.847 22.032l0.207 6.054" fill="#231f20"/>
   <path d="m583.12 188.37-7.027-15.07c-8.719-36.211-3.625-63.094-29.613-90.535l35.91 13.066c3.515-1.0664 7.031-2.1328 12.554-0.1211 8.461 3.0782 6.7 18.664 8.157 24.863 4.64 19.481 20.961 36.953 11.789 62.156-2.324 6.387-31.77 5.641-31.77 5.641" fill="#231f20"/>
   <path d="m651.93 188.39c2.59-3.36 7.851-8.676 9.672-13.684 3.394-9.324 2.75-17.766 3.019-25.488 15.946 14.207 24.731 30.894 26.985 50.484-6.122 0.703-18.161-3.285-24.985-4.402l-11.051-4.024-3.64-2.886" fill="#231f20"/>
   <path d="m424.18 357.44c11.39 11.066 25.058 27.402 35.773 40.765 11.871 14.75 21.504 33.012 31.465 50.41 20.852 36.067 49.18 76.867 68.316 114.95" fill="none" stroke="#231f20" stroke-miterlimit="3.8636" stroke-width="1.4696"/>
   <path d="m433.89 435.3c-3.153-24.32-2.813-39.133-10.61-66.328" fill="none" stroke="#231f20" stroke-miterlimit="3.8636" stroke-width="1.4696"/>
   <path d="m460.6 474.46c-2.344-22.832-9.661-47.68-12.309-72.91" fill="none" stroke="#231f20" stroke-miterlimit="3.8636" stroke-width="1.4696"/>
   <path d="m505.12 531.07c-9.758-18.035-20.219-35.863-26.804-58.82-3.899-13.598-4.891-24.394-6.067-36.48" fill="none" stroke="#231f20" stroke-miterlimit="3.8636" stroke-width="1.4696"/>
   <path d="m559.22 586.45c-13.973-17.398-25.121-38.277-36.977-60.297l-7.137-24.898" fill="none" stroke="#231f20" stroke-miterlimit="3.8636" stroke-width="1.4696"/>
   <path d="m500.31 440.33c22.882 22.488 37.933 34.988 57.269 65.754" fill="none" stroke="#231f20" stroke-miterlimit="3.8636" stroke-width="1.4696"/>
   <path d="m472.61 393.04c29.106 10.191 53.317 23.316 73.532 48.48" fill="none" stroke="#231f20" stroke-miterlimit="3.8636" stroke-width="1.4696"/>
   <path d="m450.93 366.77c26.91 8.528 41.902 12.829 67.097 26.051" fill="none" stroke="#231f20" stroke-miterlimit="3.8636" stroke-width="1.4696"/>
   <path d="m450.35 602-12.727-64.387c-4.66-16.242-8.582-25.25-12.004-41.847" fill="none" stroke="#231f20" stroke-miterlimit="3.8636" stroke-width="1.4696"/>
   <path d="m84.547 408c15.793-6.246 24.492-11.227 40.738-15.887l35.125-1.472 30.024-8.606c10.769-1.754 9.761-1.273 19.476-1.383" fill="none" stroke="#231f20" stroke-miterlimit="3.8636" stroke-width="1.4696"/>
   <path d="m46.656 285.86c55.68 12.891 103.1 21.653 155.63 38.887" fill="none" stroke="#231f20" stroke-miterlimit="3.8636" stroke-width="1.4696"/>
   <path d="m62.856 312.36c20.309-4.484 36.688-2.683 52.132-0.804" fill="none" stroke="#231f20" stroke-miterlimit="3.8636" stroke-width="1.4696"/>
   <path d="m111.07 332.56c6.328-3.918 9.36-2.684 15.715-4.508 10.066-2.883 21.27-5.141 32.547-5.125" fill="none" stroke="#231f20" stroke-miterlimit="3.8636" stroke-width="1.4696"/>
   <path d="m153.78 342.86 10.422-2.988c13.242-3.797 21.649-3.148 35.196-5.887" fill="none" stroke="#231f20" stroke-miterlimit="3.8636" stroke-width="1.4696"/>
   <path d="m77.715 255.55 43.824 44.191" fill="none" stroke="#231f20" stroke-miterlimit="3.8636" stroke-width="1.4696"/>
   <path d="m112.96 249.84c15.773 25.672 31.031 42.89 51.812 57.379" fill="none" stroke="#231f20" stroke-miterlimit="3.8636" stroke-width="1.4696"/>
   <path d="m165.43 260.21 30.23 50.766" fill="none" stroke="#231f20" stroke-miterlimit="3.8636" stroke-width="1.4696"/>
   <path d="m237.21 347.22c11.754-7 21.617-7.918 36.555-10.481" fill="none" stroke="#231f20" stroke-miterlimit="3.8636" stroke-width="1.4696"/>
   <path d="m507.309,236.133c.601-4.567 1.476-12.844.312-16.906-3.848-13.418-6.605-21.039-19.016-16.332l-23.085,4.136c6.109,3.981 12.144,8.364 16.589,14.543 8.895,12.356 6,18.918 17.364,25.215 4.461-5.101 5.695-8.129 9.472-13.609l-1.636,2.953" fill="#231f20"/>
   <path d="m161.434,93.0234c-10.723-22.3242-15.793-31.2031 7.839-41.7617 3.528-1.4062 4.957-3.7851 8.379-5.5508 .871-.4492.196-1.7578-.675-1.3046-3.336,1.7226-6.192.9179-9.629,2.2851-26.516,11.8477-19.602,22.082-7.571,47.1289 .532,1.1016 2.188.3086 1.657-.7969" fill="#231f20"/>
   <path d="m195.313,182.418c10.601-.367 16.402-.141 27.179-.555 6.188-.215 16.028-3.472 23.965-5.75 3.031-2.668 6.703-4.57 8.758-7.16 .566-.707.738-1.89.406-2.73-1.445-3.629-2.676-5.485-3.824-7.375-1.844-3.039-6.399-.274-4.555,2.761 1.024,1.688 1.969,3.418 3.258,6.649 .336.844.965-3.442.402-2.731-1.89,2.379-3.379,4.989-6.164,7.442-7.605,2.179-16.48,4.285-22.406,4.488-10.781.414-16.519,1.656-27.121,2.023-1.957.067-1.859,3.004.102,2.938" fill="#231f20"/>
   <path d="m166.09,175.086c-4.043-2.102-5.688-3.719-8.582-6.871l-1.473-2.004c-.527-.828-.972-.816-1.469.027l-1.691,2.883c-.348.594.188,1.125.652,1.633 3.239,3.527 6.77,4.426 11.293,6.777 1.629.848 2.899-1.597 1.27-2.445" fill="#231f20"/>
   <path d="m223.355,165.25c6.352-3.855.254,3.195 5.887-4.75l.949-5.797c.481-3.519-4.761-4.332-5.265-.816l-.653,4.601c-3.898,5.492.903-.144-3.492,2.524-2.828,1.715-.254,5.957 2.574,4.238" fill="#231f20"/>
   <path d="m222.664,127.223c-4.949-17.262 8.399-42.6566-13.133-46.1332-4.836-.7773-6.008,6.4766-1.172,7.2579 18.559,2.9961 8.625,24.4023 12.891,39.2813 .27.941 1.684.535 1.414-.406" fill="#231f20"/>
   <path d="m489.203,147.887c-8.254-11.821-10.797-49.5042-25.113-49.2464-4.899.086-4.766,7.4334.133,7.3434 12.683-.222 15.859,32.692 23.172,43.164 .843,1.204 2.648-.058 1.808-1.261" fill="#231f20"/>
   <path d="m427.652,186.844c10.914,2.207 20.274,8.082 33.868,2.406 14.882-4.27 53.128,2.727 54.281-18.539 .215-4.035-5.836-4.363-6.055-.328-1.035,19.121-36.426,10.531-49.805,14.367-12.714,5.309-21.793,2.719-31.996.652-.961-.195-1.254,1.246-.293,1.442" fill="#231f20"/>
   <path d="m492.641,172.309c1.39-2.508 3.086-4.657 3.586-7.332-.829-2.899-3-4.61-3.832-7.504-.27-.946-1.68-.539-1.411.402 .829,2.898-.41,4.434.422,7.328-.414,2.211-.351,3.52-1.5,5.594-1.008,1.82 1.723,3.332 2.735,1.512" fill="#231f20"/>
   <path d="m499.551,45.5742c.883-2.7734 3.351-4.4922 3.304-7.6172-.082-7.5195-2.578-12.8359-2.265-20.7968 .109-.9493.418-1.7618.519-2.7461 .02-.1797-.472,1.3906-.386,1.2343 .179-.3281.726-2.0507.945-2.25 .609-.6562 1.195-1.2031 1.852-1.7109 .109-.0859-1.129.543-.993.5039 2.028-.582 4.129-1.9336 5.133-1.8672 1.75,1.4766 1.16,3.5781 1.934,5.8477 .332,1.1875.422,2.0078.535,2.9687 .434,11.4805-4.555,13.1758-10.301,20.5352-.601.7734.559,1.6758 1.16.9023 6.586-8.4336 15.496-8.7226 14.996-21.8828-.144-1.2539-.336-2.7148-.793-4.3125-1.105-3.0742-4.144-3.7617-6.746-5.73046-1.25-.33593-4.765-2.90625-7.539-2.10937-.136.03906-.879.41406-.992.5-.91.70703-1.535,1.27344-2.383,2.18359-.394.35938-2.105,2.71484-2.433,3.30474-.086.1562-.368,1.0546-.387,1.2343-.098.9844-.434,1.9336-.531,2.918-.352,8.2461 4,13.6016 4.082,21.332 .051,2.6797.644,4.7422-.114,7.1133-.296.9336 1.102,1.3789 1.403.4453" fill="#231f20"/>
   <path d="m446.566,180.934-2.925-.883c7.718-3.742 14.351-6.598 23.004-9.082 9.71-2.781 11.375-7.656 12.781-14.746l-5.168-18.012c2.379,5.625 4.879,8.348 6.551,14.176 5.113,17.832-11.868,19.261-23.192,25.758 4.871.324 6.813-.235 10.598-1.7l-2.52,3.207c-7.445,1.371-10.976-.293-17.336,1.532l-1.793-.25" fill="#fff"/>
   <path d="m365.68 136.09-1.367-4.766 1.589-0.457 1.618 5.649-3.883 1.117 2.043-1.543" fill="#fff"/>
   <path d="m503.34,17.6914c4.844.9063 2.875-.6328 3.16,5.0195-1.566-1.4609-2.73-2.8476-3.16-5.0195" fill="#fff"/>
   <path d="m470.16 123.91c-2.676-1.336-3.863-2.14-5.609-7.562l5.476-1.571 1.571 5.473c-0.352 1.438-0.805 2.524-1.438 3.66" fill="#fff"/>
   <path d="m162.78 98.34-8.652-20.836c-1.203-18.191 10.047-25.621 29.469-31.191 7.242-2.0742 16.609 1.9258 20.925 5.6563-6.285-2.5899-17.183-0.6133-25.484 1.7656-13.598 3.9023-22.75 11.305-21.906 22.91l6.676 15.285 2.937 10.242c2.317 19.402-1.281 32.855-4.598 47.945 4.594-1.316 7.317-1.14 11.379-0.969l-21.011 6.028c-3.039-10.598 4.929-17.469 8.582-24.055 4.66-8.41 5.226-20.422 1.683-32.781" fill="#6aaabe"/>
   <path d="m59.7617,110.297c-1.4922-1.863-2.957-2.973-3.6133-5.27-.3046-1.058-.2304-2.8.4766-3.004 1.9414-.554 3.7852,1.211 4.3438,3.153 .5039,1.765-.5547,3.406-1.2071,5.121" fill="#fff"/>
   <path d="m170.32,169.945c1.035.278 11.258,3.27 13.805,3.493 12.039,1.328 19.711,1.421 34.492-1.672l1.766-.508-32.199-2.996 1.414-.407c0,0 6.382-1.066 6.734-1.164l-9.516-1.859c.305-.277.454-1.086.985-1.238 6.711-1.926 16.5-1.102 23.742-3.176 5.297-1.52 5.59-12.496 4.375-16.734-2.078-7.243.34-12.137-1.531-18.672l-3.242-11.301c-.153-.531-1.719-3.328-1.469-5.121 .402-2.602 2.949-3.711 2.289-6.008-.86-3.0039-3.938-4.414-6.942-3.5507-1.765.5039-2.621,2.8517-2.113,4.6167 .758,2.649 4.067,4.188 5.301,5.168l1.875,6.536 3.262,6.707c1.597,7.57.543,11.886.523,17.816-.043,7.848.82,16.199-7.277,19.285l-8.453.512-2.649.762 1.238.98-1.234.356-11.203,2.257-.527,1.489 5.777.828c-2.801.23-3.102.508-4.059,2.5l15.368,2.281c-7.266-.016-13.473-.34-18.977-2.199-2.75-.934-9.742-3.324-12.215-2.613-.883.253-1.336,1.335-1.082,2.222 .149.528 1.082.453 1.488.528l.254.882" fill="#fff"/>
   <path d="m211.59 209.99c-4.211-1.152-7.785-2.051-11.039-5.168-11.219-8.019-22.547-30.136-19.317-47.469 0.856-4.574-6.007-5.855-6.859-1.281-3.699 19.817 9.141 44.664 21.965 53.828 4.117 3.946 8.269 4.653 13.598 6.114 4.015 1.101 5.668-4.922 1.652-6.024" fill="#231f20"/>
  </g>
 </g>
</svg>
