<?xml version='1.0' encoding='utf-8'?>
<svg xmlns="http://www.w3.org/2000/svg" enable-background="new 0 0 431.1796 304.877" version="1.1" viewBox="0 0 431.1796 304.877">
		<linearGradient id="l" x1="166.01" x2="184.98" y1="208.76" y2="208.76" gradientTransform="matrix(1 0 0 -.9529 0 402.98)" gradientUnits="userSpaceOnUse">
		<stop stop-color="#FFEE27" offset="0"/>
		<stop stop-color="#FFE612" offset=".1425"/>
		<stop stop-color="#FFD600" offset=".4575"/>
		<stop stop-color="#FECC00" offset=".7511"/>
		<stop stop-color="#FDC800" offset="1"/>
	</linearGradient>
	<path d="m184.98 201.04s-5.6338 6.3203-13.871 6.3203c-0.9917 0.4023-1.9785 0.7783-3.0811 0.6641-0.9702-0.1006-0.9384-0.8955-0.0976-1.2227-0.9028 0.1133-2.606-0.1943-1.6328-1.9551 0.7378-1.334 4.8877 0.6973 4.8877 0.6973s4.3613 1.1162 12.563-5.4873" fill="url(#l)" stroke="#000" stroke-miterlimit="10" stroke-width=".4243"/>
			<path d="m213.48 158.07s-47.598-76.948-8.7266-72.982c38.871 3.9658 10.314 34.904 23.005 67.429" fill="#F6F6F6"/>
			<path d="m212.95 158.41s-0.3075-0.5935-0.8839-1.7064c-0.5898-1.1015-1.4631-2.7091-2.606-4.7359-2.2959-4.047-5.5421-9.8534-9.0292-17.036-1.7365-3.5938-3.5636-7.5175-5.3017-11.757-1.7318-4.2397-3.4162-8.7857-4.6896-13.65-0.633-2.4317-1.1629-4.9434-1.4791-7.5343-0.2816-2.5885-0.4163-5.276 0.0932-7.9746 0.2597-1.3408 0.6488-2.691 1.3147-3.9455 0.6581-1.2525 1.5742-2.4024 2.7017-3.2981 1.1251-0.898 2.4308-1.5482 3.7822-1.9594 1.3568-0.3813 2.744-0.6098 4.1236-0.6603 0.6906-0.0481 1.3752-0.0072 2.0629-0.013 0.6885 0.0547 1.3458 0.081 2.0593 0.1608 1.3213 0.1874 2.6187 0.2933 3.9507 0.5764 2.6767 0.4791 5.2672 1.2273 7.7518 2.2849 2.4565 1.1068 4.7538 2.6983 6.4305 4.819 1.7025 2.1087 2.6187 4.6882 3.0435 7.1944 0.4266 2.5237 0.4289 5.0183 0.3203 7.4286-0.1089 2.4144-0.3803 4.7514-0.6384 7.0223-0.541 4.5378-1.1233 8.8098-1.4166 12.78-0.2783 3.9692-0.2963 7.6251-0.0722 10.852 0.2535 3.223 0.6574 6.0215 1.185 8.2852 0.5035 2.2684 1.1463 3.9911 1.7433 5.0917 0.5656 1.1144 0.9572 1.6627 0.9572 1.6627l-1.175 0.4585s-0.0497-0.7043-0.3114-1.9382c-0.136-0.612-0.3036-1.3668-0.5007-2.2542-0.1671-0.892-0.5022-1.8758-0.7245-3.0178-0.5558-2.2578-0.9949-5.0531-1.2888-8.2791-0.2704-3.2299-0.2789-6.8937-0.0755-10.876 0.1653-3.9865 0.6108-8.2895 1.0039-12.832 0.1855-2.2711 0.3774-4.6049 0.4027-6.9829 0.0274-2.3739-0.0625-4.8053-0.5487-7.1827-0.4739-2.3753-1.439-4.6661-2.983-6.5442-1.5413-1.8826-3.6438-3.3024-5.9623-4.3033-2.343-0.9512-4.8531-1.6344-7.3928-2.0459-0.6227-0.1361-1.2881-0.2028-1.9452-0.284l-1.972-0.2601c-0.6044-0.0687-1.2747-0.1-1.9092-0.1529-0.6392 6e-3 -1.2847-0.0364-1.919 0.0076-1.2766 0.0423-2.5248 0.2518-3.7225 0.5814-1.1876 0.3589-2.2924 0.9133-3.2363 1.6613-1.9148 1.4887-3.0114 3.8243-3.4497 6.2675-0.4931 2.4461-0.4233 5.0108-0.1855 7.5051 0.2669 2.5022 0.7455 4.9633 1.3305 7.3585 1.1836 4.7915 2.7567 9.3298 4.4023 13.567 1.654 4.2369 3.3797 8.1853 5.0863 11.776 3.4072 7.1859 6.5596 13.027 8.8435 17.066 2.297 4.0359 3.9033 6.1551 3.9033 6.1551l-1.0736 0.6618z"/>
			<path d="m213.25 150.13s-0.8157-1.0303-1.781-2.6961c-0.4905-0.8308-1.0159-1.8259-1.524-2.9163-0.5055-1.0914-0.9993-2.2764-1.4104-3.4898-0.227-0.599-0.3911-1.2193-0.5782-1.8203-0.1936-0.5994-0.3117-1.2101-0.4648-1.789-0.158-0.5783-0.2331-1.1552-0.3458-1.692-0.1145-0.537-0.1765-1.0526-0.237-1.5275-0.1439-0.947-0.1916-1.7432-0.2259-2.3-0.0383-0.5561-0.0601-0.8739-0.0601-0.8739s0.0335 0.3168 0.0922 0.8713c0.0547 0.5546 0.1315 1.3466 0.3096 2.285 0.0777 0.4706 0.158 0.9808 0.2917 1.5112 0.132 0.5301 0.227 1.099 0.4053 1.6681 0.1735 0.5697 0.3121 1.1696 0.5262 1.7571 0.2076 0.5891 0.392 1.1962 0.6387 1.7809 0.4506 1.1848 0.9815 2.337 1.519 3.3939 0.5402 1.056 1.0928 2.0153 1.6037 2.8121 1.014 1.6075 1.8221 2.5518 1.8221 2.5518l-0.5813 0.4735z"/>
			<path d="m216.34 148.78s-0.3995-1.0726-0.6562-2.7012c-0.1203-0.8174-0.2395-1.7743-0.2623-2.8031-0.0476-1.0279 0.0041-2.1237 0.0852-3.2133 0.0654-0.5422 0.1308-1.0844 0.1953-1.6181 0.0939-0.5286 0.1864-1.0487 0.2759-1.5521 0.2292-0.9966 0.4498-1.9225 0.7045-2.6988 0.2164-0.7868 0.4767-1.4163 0.634-1.8643 0.1632-0.446 0.2564-0.7008 0.2564-0.7008s-0.0822 0.2587-0.226 0.7114c-0.1378 0.4543-0.37 1.0921-0.5516 1.8854-0.22 0.7829-0.3995 1.7136-0.5839 2.7101-0.067 0.502-0.1363 1.0207-0.2067 1.5478-0.0408 0.5294-0.0822 1.0671-0.1237 1.6049-0.0332 1.0775-0.0377 2.155 0.0526 3.1587 0.0655 1.0053 0.2226 1.9322 0.373 2.7188 0.161 0.7856 0.3448 1.4253 0.4844 1.8662 0.0762 0.2144 0.1361 0.3828 0.1769 0.4976 0.0452 0.1134 0.0693 0.1738 0.0693 0.1738l-0.6971 0.277z"/>
	<path d="m303.01 185.07s11.529 1.0078 14.648-0.4678c0.5528 1.0224-6.3711 5.8799-14.343 5.0234"/>
	<g stroke="#000" stroke-miterlimit="10" stroke-width=".6941">
		<linearGradient id="m" x1="301.48" x2="301.48" y1="170.41" y2="204.66" gradientUnits="userSpaceOnUse">
			<stop stop-color="#3E3D40" offset="0"/>
			<stop offset="1"/>
		</linearGradient>
		<path d="m305.32 185.54c0-5.3408-1.6758-10.44-4.6963-15.129-0.0742 11.366-1.0635 22.848-2.9766 34.246 4.8916-5.7227 7.6729-12.221 7.6729-19.117z" fill="url(#m)"/>
		<linearGradient id="n" x1="286" x2="286" y1="152.27" y2="221.42" gradientUnits="userSpaceOnUse">
			<stop stop-color="#FFEE27" offset="0"/>
			<stop stop-color="#FFE612" offset=".1425"/>
			<stop stop-color="#FFD600" offset=".4575"/>
			<stop stop-color="#FECC00" offset=".7511"/>
			<stop stop-color="#FDC800" offset="1"/>
		</linearGradient>
		<path d="m277.9 152.27c1.4619 16.31 0.7675 33.23-2.1543 49.972-1.1338 6.4951-2.6016 12.898-4.3643 19.174 11.154-3.9541 20.292-9.7744 26.265-16.762 1.9131-11.398 2.9024-22.88 2.9766-34.246-4.6777-7.2647-12.607-13.537-22.723-18.138z" fill="url(#n)"/>
		<linearGradient id="o" x1="262.64" x2="262.64" y1="145.48" y2="226.63" gradientUnits="userSpaceOnUse">
			<stop stop-color="#3E3D40" offset="0"/>
			<stop offset="1"/>
		</linearGradient>
		<path d="m277.9 152.27c-6.7833-3.084-14.547-5.4102-22.948-6.794 2.4932 17.001 2.2481 35.068-0.8789 52.983-1.6924 9.6944-4.2041 19.139-7.4209 28.172 8.9131-0.7617 17.269-2.5703 24.73-5.2158 1.7627-6.2754 3.2305-12.679 4.3643-19.174 2.9218-16.741 3.6162-33.661 2.1543-49.972z" fill="url(#o)"/>
		<linearGradient id="p" x1="239.96" x2="239.96" y1="144.03" y2="227.05" gradientUnits="userSpaceOnUse">
			<stop stop-color="#FFEE27" offset="0"/>
			<stop stop-color="#FFE612" offset=".1425"/>
			<stop stop-color="#FFD600" offset=".4575"/>
			<stop stop-color="#FECC00" offset=".7511"/>
			<stop stop-color="#FDC800" offset="1"/>
		</linearGradient>
		<path d="m232.45 144.14c2.9267 15.948 2.957 33.279-0.0562 50.543-1.9233 11.017-5.02 21.638-9.122 31.52 4.4575 0.5576 9.0727 0.8506 13.801 0.8506 3.25 0 6.4424-0.1475 9.5723-0.4151 3.2168-9.0332 5.7285-18.478 7.4209-28.172 3.127-17.915 3.3721-35.982 0.8789-52.983-5.6982-0.9384-11.686-1.4482-17.872-1.4482-1.5556 0-3.0937 0.043-4.623 0.1055z" fill="url(#p)"/>
		<linearGradient id="q" x1="219.07" x2="219.07" y1="144.14" y2="226.2" gradientUnits="userSpaceOnUse">
			<stop stop-color="#3E3D40" offset="0"/>
			<stop offset="1"/>
		</linearGradient>
		<path d="m232.45 144.14c-6.9497 0.2832-13.611 1.1972-19.837 2.6523 2.6836 13.861 2.7529 29.131 0.0786 44.451-1.9155 10.972-5.0791 21.204-9.2168 30.425 6.0815 2.0977 12.735 3.6523 19.797 4.5342 4.102-9.8819 7.1987-20.503 9.122-31.52 3.0132-17.264 2.9829-34.595 0.0562-50.543z" fill="url(#q)"/>
		<linearGradient id="r" x1="200.52" x2="200.52" y1="146.79" y2="221.66" gradientUnits="userSpaceOnUse">
			<stop stop-color="#FFEE27" offset="0"/>
			<stop stop-color="#FFE612" offset=".1425"/>
			<stop stop-color="#FFD600" offset=".4575"/>
			<stop stop-color="#FECC00" offset=".7511"/>
			<stop stop-color="#FDC800" offset="1"/>
		</linearGradient>
		<path d="m193.98 187.97c-1.5977 9.1524-4.2241 17.69-7.604 25.344 4.9072 3.3125 10.684 6.1347 17.104 8.3486 4.1377-9.2207 7.3013-19.453 9.2168-30.425 2.6743-15.32 2.605-30.59-0.0786-44.451-6.6153 1.5459-12.732 3.6992-18.169 6.3496 1.7129 10.627 1.6797 22.525-0.4692 34.834z" fill="url(#r)"/>
		<linearGradient id="s" x1="182.25" x2="182.25" y1="153.14" y2="213.32" gradientUnits="userSpaceOnUse">
			<stop stop-color="#3E3D40" offset="0"/>
			<stop offset="1"/>
		</linearGradient>
		<path d="m194.45 153.14c-15.606 7.6074-25.609 19.29-25.609 32.401 0 10.683 6.6381 20.42 17.536 27.776 3.3799-7.6543 6.0063-16.191 7.604-25.344 2.1489-12.309 2.1821-24.207 0.4692-34.834z" fill="url(#s)"/>
	</g>
	<path d="m306.15 182.18c-0.7998-1.8194-1.8193-3.5796-3.0293-5.2998-5.1406-7.2701-13.86-13.54-24.99-18.14-7.46-3.0796-15.99-5.4096-25.23-6.79-6.2695-0.94-12.85-1.4497-19.66-1.4497-1.71 0-3.3999 0.04-5.0801 0.1001-7.6402 0.29-14.97 1.1997-21.82 2.6596-7.2701 1.5401-14 3.7002-19.98 6.3501-1.0401 0.46-2.0703 0.94-3.0601 1.4302 3.5098-2.8901 7.6299-5.48 12.23-7.7202 5.4399-2.6499 11.55-4.8101 18.17-6.3501 6.23-1.46 12.89-2.3696 19.84-2.6597 1.5302-0.06 3.06-0.1001 4.6201-0.1001 6.1899 0 12.17 0.5098 17.87 1.4502 8.4004 1.3799 16.17 3.71 22.95 6.7896 10.12 4.6001 18.04 10.87 22.72 18.14 2.3506 3.6402 3.8809 7.5303 4.4502 11.59z" fill="#F6F6F6" opacity=".1"/>
			<radialGradient id="t" cx="146.13" cy="156.62" r="37.578" fx="138.74" fy="148.81" gradientUnits="userSpaceOnUse">
			<stop stop-color="#FFEE27" offset="0"/>
			<stop stop-color="#FFE91C" offset=".1317"/>
			<stop stop-color="#FDC800" offset="1"/>
		</radialGradient>
		<ellipse cx="156.37" cy="164.43" rx="43.096" ry="36.882" fill="url(#t)"/>
		<path d="m113.54 164.42s0.0504 0.9814 0.145 2.8217c-0.0097 0.9324 0.2488 2.0236 0.4559 3.33 0.1395 1.3203 0.6864 2.7606 1.158 4.4 0.2583 0.8137 0.672 1.6197 1.0271 2.4932 0.1913 0.4312 0.3666 0.8824 0.5829 1.3253 0.2432 0.4297 0.4917 0.8687 0.7454 1.3168 0.5177 0.89 1.0122 1.8434 1.7064 2.7167 0.3265 0.4493 0.6589 0.9067 0.997 1.372 0.1694 0.2321 0.3403 0.4661 0.5126 0.702 0.195 0.218 0.3915 0.4379 0.5897 0.6595 3.0609 3.6289 7.2628 7.1114 12.452 9.7821 5.1772 2.6774 11.33 4.5367 17.976 5.0905 0.8312 0.0493 1.6711 0.0592 2.5141 0.0914 0.8329 0.0046 1.7152 0.1047 2.5214 0.0322 0.8654-0.047 1.736-0.0942 2.6117-0.1418 0.4362-0.0281 0.8804-0.038 1.3137-0.0812l1.2828-0.1843c0.8565-0.1218 1.7176-0.2443 2.5831-0.3673 0.8614-0.1649 1.7217-0.3904 2.5884-0.5833 1.751-0.3318 3.4293-0.9879 5.1537-1.5226 6.7514-2.5074 13.249-6.6445 18.004-12.481 0.6414-0.6886 1.1649-1.4688 1.6956-2.2445 0.5232-0.7795 1.1155-1.5176 1.5283-2.3665 0.4437-0.8288 0.9305-1.6367 1.3578-2.4747l1.1005-2.6026c0.2051-0.4265 0.3312-0.881 0.461-1.3342l0.4013-1.3559c0.1276-0.4535 0.2836-0.9004 0.3891-1.3592l0.2412-1.394c0.1331-0.9326 0.3977-1.8496 0.3936-2.7986l0.1595-2.751c-0.0945-4.0458-0.7981-7.527-2.1275-11.112l-1.117-2.5861c-0.4329-0.8319-0.9243-1.6334-1.3697-2.4569-0.4161-0.8426-1.0119-1.5742-1.5378-2.347-0.5334-0.7689-1.0594-1.5419-1.7028-2.2234-4.7713-5.7788-11.26-9.8469-17.98-12.296-6.786-2.4019-13.794-3.2453-20.48-2.7366-6.5202 0.5461-12.698 2.38-17.827 5.0335-5.1601 2.6455-9.339 6.0984-12.384 9.6969-3.0676 3.5995-4.9703 7.3158-6.1818 10.481-0.4801 1.6263-1.048 3.0486-1.2188 4.3646-0.2332 1.2994-0.5141 2.3969-0.5217 3.3137-0.1308 1.8219-0.2006 2.7935-0.2006 2.7935l-7e-4 -0.0159zm-0.5373 0.0159s0.046-0.9903 0.1322-2.8472c-0.0138-0.9362 0.2416-2.0597 0.4475-3.3941 0.1437-1.3511 0.6826-2.8166 1.1362-4.4977 1.1581-3.2727 3.0168-7.1415 6.0833-10.928 3.0433-3.7846 7.2631-7.4565 12.531-10.326 5.2735-2.8749 11.505-4.9474 18.447-5.6744 6.7684-0.6678 14.224 0.0285 21.39 2.4066 7.1013 2.5229 14.009 6.7684 19.175 12.922 2.5441 3.0731 4.7948 6.5132 6.1806 10.357 1.4124 3.7512 2.1769 8.0812 2.2108 11.906l-0.1876 3.1345c-0.0103 1.0255-0.2928 2.0185-0.4472 3.0257l-0.2757 1.5048c-0.1178 0.495-0.2867 0.9773-0.428 1.4661l-0.4448 1.4603c-0.1451 0.4877-0.2873 0.9761-0.5085 1.4346-1.4109 3.8229-3.6721 7.2387-6.2253 10.283-5.182 6.0956-12.081 10.272-19.151 12.736-1.8048 0.5199-3.5607 1.1561-5.3821 1.4629-0.9037 0.1808-1.7939 0.392-2.6948 0.5436-0.9116 0.109-1.8185 0.2175-2.7206 0.3253l-1.3478 0.1593c-0.4444 0.034-0.8813 0.0338-1.3203 0.0523-0.8765 0.0282-1.748 0.0562-2.6142 0.084-0.9254 0.0562-1.7642-0.0652-2.6412-0.089-0.8661-0.052-1.7281-0.0821-2.5803-0.1521-6.8163-0.7191-13.073-2.7659-18.298-5.6165-5.2384-2.8445-9.4354-6.4865-12.463-10.241-3.0389-3.7629-4.9098-7.5845-6.1042-10.823-0.4621-1.6679-1.022-3.1155-1.197-4.4623-0.232-1.3274-0.5098-2.4572-0.5133-3.3777-0.1225-1.8386-0.1878-2.8191-0.1878-2.8191l-5e-4 -0.0159z"/>
			<ellipse transform="matrix(.9851 .1718 -.1718 .9851 27.167 -19.051)" cx="123.68" cy="147.46" rx="12.958" ry="16.872" fill="#fff"/>
		<path d="m136.7 149.74s-0.0772 0.3593-0.2219 1.0331c-0.0682 0.337-0.1559 0.7525-0.3143 1.2401-0.1497 0.4858-0.2923 1.0568-0.5453 1.6566-0.4238 1.2322-1.1429 2.6563-2.1328 4.1767-1.0063 1.5066-2.3763 3.0854-4.2217 4.3736-0.232 0.1584-0.4665 0.3183-0.7032 0.4799-0.252 0.1374-0.5066 0.2761-0.7636 0.4161-0.5018 0.305-1.075 0.4898-1.6326 0.7291-1.1547 0.3586-2.3954 0.6816-3.6985 0.63-0.3246 0.0241-0.6487-0.0178-0.9752-0.0548-0.3294-0.0488-0.6488-0.0398-0.992-0.1379-0.315-0.0766-0.6318-0.1536-0.9505-0.2311-0.3186-0.0865-0.6384-0.2341-0.9599-0.3507-1.2582-0.5313-2.4616-1.2631-3.4633-2.2596-2.0483-1.9418-3.457-4.6002-4.1752-7.4383-0.7599-2.8413-0.7735-5.8849-0.3041-8.8152 0.5444-2.9006 1.593-5.786 3.2663-8.1942 1.6357-2.4287 3.8605-4.4553 6.446-5.591 2.5649-1.1605 5.5165-1.2624 7.9276-0.3757 1.2688 0.4005 2.3101 1.119 3.2814 1.8493 0.4439 0.4142 0.9212 0.7822 1.2901 1.2394 0.1944 0.2189 0.3871 0.4357 0.5778 0.6505 0.1681 0.2323 0.3346 0.4624 0.4993 0.69 1.3005 1.838 2.0547 3.788 2.4913 5.5467 0.4164 1.7662 0.6106 3.3498 0.5919 4.6528 0.0347 0.6517-0.0243 1.2317-0.0477 1.7368-0.0154 0.5063-0.074 0.9325-0.1247 1.2777-0.0934 0.6912-0.1432 1.0598-0.1432 1.0598l-2e-3 0.0103zm-0.5248-0.102s0.0483-0.3599 0.139-1.0347c0.0495-0.337 0.1069-0.753 0.1212-1.2469 0.0223-0.4927 0.0805-1.0587 0.0458-1.6938 0.0187-1.2706-0.1729-2.8125-0.5775-4.5286-0.4243-1.7085-1.1582-3.5981-2.4108-5.3658-0.1584-0.2191-0.3184-0.4404-0.48-0.664-0.1831-0.2057-0.3681-0.4134-0.5547-0.6231-0.3536-0.4398-0.8104-0.7886-1.2335-1.1862-0.9165-0.6914-1.939-1.3894-3.0949-1.7516-2.334-0.856-5.0903-0.7538-7.5562 0.3505-2.4739 1.0846-4.6305 3.0389-6.2205 5.3993-1.6327 2.3575-2.6438 5.1222-3.1855 7.9856-0.4588 2.8612-0.4467 5.8315 0.2919 8.5933 0.6965 2.7599 2.0637 5.3303 4.0252 7.1897 0.955 0.9539 2.1178 1.6528 3.2916 2.1496 0.3017 0.1082 0.5827 0.2449 0.8961 0.3304 0.3187 0.0774 0.6356 0.1543 0.9506 0.2307 0.2816 0.0848 0.6171 0.0804 0.9198 0.1252 0.3099 0.0352 0.6175 0.0762 0.9258 0.0519 1.2367 0.0509 2.4174-0.2605 3.5201-0.6012 0.5331-0.231 1.0812-0.4048 1.5629-0.6994 0.2467-0.1343 0.4911-0.2674 0.733-0.3991 0.2278-0.1558 0.4533-0.3101 0.6765-0.4628 1.7771-1.2409 3.1067-2.7716 4.0837-4.2365 0.961-1.4787 1.6624-2.8651 2.0744-4.0674 0.2479-0.5875 0.3825-1.1346 0.5277-1.6032 0.1522-0.4636 0.2403-0.8798 0.3087-1.2187 0.1444-0.6739 0.2215-1.0332 0.2215-1.0332l-0.0019 0.01z"/>
		<path d="m128.72 142.13s-0.6469-2.7572-1.2687-6.9278c-0.6187-4.1669-1.2063-9.7802-1.0183-15.412 0.0621-1.4065 0.1518-2.8124 0.3254-4.1892 0.1693-1.3762 0.3885-2.7272 0.71-4.0117 0.2947-1.2902 0.7101-2.5059 1.1544-3.6358 0.2517-0.5533 0.498-1.092 0.76-1.5995 0.3021-0.4871 0.5496-0.9838 0.867-1.4106 0.6076-0.8728 1.2685-1.5947 1.9079-2.1714 0.3356-0.2704 0.6497-0.5234 0.9401-0.7573 0.3197-0.1913 0.6134-0.367 0.8787-0.5257 0.259-0.1698 0.505-0.292 0.7322-0.3727 0.2211-0.0919 0.4091-0.1701 0.5615-0.2336 0.3044-0.1264 0.4668-0.1939 0.4668-0.1939l0.0501 0.1419s-0.1578 0.0719-0.4537 0.2066c-0.1477 0.0672-0.3299 0.15-0.5441 0.2475-0.22 0.0859-0.4573 0.2137-0.7056 0.3889-0.254 0.1633-0.5352 0.3441-0.8413 0.541-0.2755 0.2374-0.5735 0.4941-0.8918 0.7684-0.604 0.5823-1.2227 1.3044-1.7851 2.1715-0.2946 0.4234-0.5199 0.9179-0.7978 1.3986-0.2389 0.5029-0.4614 1.036-0.6888 1.5816-0.397 1.1176-0.7635 2.3154-1.0105 3.5888-0.2734 1.2661-0.4448 2.5989-0.5666 3.9554-0.1262 1.3568-0.1688 2.7432-0.1846 4.1285-0.0031 5.5506 0.7585 11.076 1.5044 15.169 0.3742 2.0482 0.743 3.7433 1.0169 4.9235 0.2752 1.1851 0.4521 1.841 0.4521 1.841l-1.5706 0.3897z"/>
		<path d="m131.86 140.75s0.1594-0.9169 0.5049-2.4703c0.3452-1.5594 0.8831-3.7738 1.6526-6.3955 0.7717-2.6201 1.757-5.6545 3.0316-8.8247 0.6433-1.5821 1.326-3.2108 2.112-4.8248 0.7612-1.625 1.6286-3.2316 2.5293-4.8176 0.9338-1.5679 1.9066-3.1149 2.9782-4.5605 0.5297-0.727 1.0657-1.44 1.6419-2.1095 0.5471-0.6922 1.142-1.3304 1.7307-1.9545 1.1714-1.2538 2.4238-2.3498 3.6576-3.3268 0.6247-0.4784 1.27-0.8955 1.8733-1.3241 0.6302-0.3895 1.2602-0.733 1.8531-1.0796 1.2323-0.6104 2.3822-1.1295 3.4527-1.4562 0.2638-0.091 0.5191-0.1791 0.7655-0.2642 0.2535-0.0609 0.498-0.1197 0.7328-0.1761 0.4699-0.1104 0.9016-0.2119 1.2915-0.3035 0.7868-0.1434 1.4161-0.1931 1.8394-0.2565 0.4249-0.0541 0.6516-0.0829 0.6516-0.0829l0.0396 0.4653s-0.2213 0.0328-0.6363 0.0944c-0.4131 0.0707-1.0271 0.1308-1.7924 0.286-0.3786 0.0971-0.7979 0.2045-1.2542 0.3215-0.2277 0.0594-0.4647 0.1211-0.7105 0.1852-0.2386 0.0879-0.4857 0.1789-0.741 0.273-1.0357 0.3379-2.1454 0.8671-3.3317 1.4834-0.5707 0.35-1.1766 0.6955-1.782 1.0862-0.5797 0.4305-1.199 0.8475-1.7982 1.3255-1.1834 0.9767-2.3827 2.0681-3.5028 3.3163-0.5628 0.6212-1.1315 1.2552-1.6536 1.9443-0.5503 0.6651-1.0614 1.3743-1.5663 2.097-1.0215 1.4363-1.9462 2.9745-2.8326 4.5318-0.8541 1.5769-1.6754 3.1722-2.393 4.7874-0.7419 1.6031-1.3828 3.2221-1.9857 4.7934-1.194 3.1489-2.1066 6.1625-2.8162 8.761-0.7074 2.6002-1.1941 4.793-1.5023 6.3303-0.3107 1.5434-0.4435 2.4122-0.4435 2.4122l-1.596-0.2669z"/>
	<ellipse cx="121.52" cy="150.7" rx="5.5493" ry="8.2124" stroke="#000" stroke-miterlimit="10" stroke-width=".4745"/>
			<path d="m123.4 175.46s0.3971 0.3748 1.1871 0.951c0.7835 0.574 1.9383 1.3588 3.4315 2.0822 1.4933 0.7078 3.3095 1.4016 5.3278 1.7149 1.0053 0.1728 2.0594 0.2291 3.1212 0.1862 1.0651-0.0194 2.1305-0.2253 3.179-0.4614 1.0418-0.2742 2.071-0.6093 3.0354-1.0661 0.4829-0.2261 0.9645-0.4441 1.4126-0.7198 0.4572-0.2565 0.9081-0.5104 1.3243-0.8102 0.8614-0.5491 1.6307-1.181 2.3598-1.7743 0.7032-0.6296 1.3743-1.2165 1.9379-1.8242 0.5865-0.5812 1.0919-1.1472 1.5601-1.6338 0.4917-0.4702 0.9203-0.8801 1.2733-1.2177 0.7274-0.6654 1.2419-0.9831 1.2419-0.9831l0.0122-0.0075c0.1392-0.0859 0.3217-0.0428 0.4076 0.0964 0.0475 0.0769 0.0551 0.1682 0.0294 0.248 0 0-0.1868 0.5689-0.6866 1.4551-0.2375 0.4524-0.5785 0.9639-1.0207 1.5132-0.2256 0.2705-0.4656 0.5583-0.7186 0.8618-0.2647 0.2934-0.5723 0.5769-0.8773 0.8861-0.6003 0.6283-1.3194 1.2434-2.0737 1.8987-0.784 0.6221-1.6119 1.2815-2.5464 1.8612-0.4502 0.3134-0.941 0.5831-1.4391 0.8537-0.4872 0.289-1.0142 0.5215-1.5427 0.7597-1.0552 0.4811-2.188 0.8362-3.3356 1.1193-1.1628 0.2176-2.3394 0.3888-3.5044 0.3651-1.1614-5e-4 -2.3034-0.1104-3.3793-0.34-2.165-0.417-4.0564-1.2485-5.559-2.1093-1.5065-0.8648-2.6538-1.7425-3.4096-2.4078-0.755-0.6608-1.146-1.1012-1.146-1.1012l-0.0048-0.0054c-0.103-0.116-0.0924-0.2935 0.0236-0.3965 0.1093-0.0973 0.2744-0.0925 0.3791 0.0057z"/>
			<path d="m150.06 168.45s0.5356-0.0707 1.2691 0.0729c0.3692 0.0697 0.7881 0.1923 1.2258 0.3694 0.4351 0.1799 0.8802 0.4283 1.299 0.7334 0.4183 0.3026 0.8016 0.681 1.1023 1.0883 0.2964 0.4202 0.4867 0.8798 0.5917 1.2851 0.0787 0.4253 0.0985 0.7697 0.0385 1.0225-0.0384 0.2449-0.0876 0.3759-0.0876 0.3759-0.0623 0.166-0.2475 0.2501-0.4135 0.1877-0.0367-0.0138-0.0693-0.0335-0.0973-0.0577l-0.0432-0.0377s-0.1059-0.0924-0.2437-0.2383c-0.0791-0.0703-0.1346-0.161-0.2396-0.2488-0.1068-0.0862-0.1986-0.188-0.3015-0.2906-0.126-0.0938-0.232-0.2079-0.353-0.3163-0.1307-0.1053-0.2675-0.2171-0.39-0.3411-0.2821-0.2305-0.5612-0.4961-0.8753-0.7544-0.6563-0.55-1.3126-1.1-1.8048-1.5125-0.5201-0.4409-0.8595-0.8069-0.8595-0.8069l-0.0063-0.0068c-0.1178-0.127-0.1103-0.3255 0.0167-0.4433 0.0496-0.0458 0.1099-0.0727 0.1722-0.0808z"/>
		<path d="m218.39 155.01s39.807-101.34 90.122-71.779c50.314 29.56-72.327 73.585-78.616 74.214" fill="#F6F6F6"/>
		<path d="m218.35 154.99s0.3712-0.9574 1.0674-2.7524c0.7159-1.787 1.7838-4.4027 3.2693-7.6769 1.4817-3.2755 3.3431-7.2275 5.6417-11.682 2.2871-4.4601 5.0374-9.4104 8.3197-14.646 3.2797-5.2344 7.0695-10.775 11.554-16.288 4.4679-5.5158 9.719-10.97 15.987-15.654 3.1245-2.3463 6.5555-4.426 10.246-6.1086 3.6969-1.6541 7.6994-2.8687 11.856-3.3037 2.0749-0.2582 4.1829-0.2259 6.2835-0.1131 2.093 0.2069 4.1943 0.4967 6.2299 1.069 4.1011 1.0515 7.9416 2.9241 11.497 5.1456 3.526 2.2207 6.9569 4.982 9.235 8.7281 1.1328 1.8613 1.9051 4.0031 2.0991 6.2103 0.2032 2.2054-0.1415 4.4211-0.8517 6.438-0.7076 2.025-1.7324 3.8773-2.8876 5.594-1.1498 1.7262-2.4704 3.2935-3.8488 4.7709-2.7589 2.9599-5.7933 5.5283-8.8824 7.8834-6.2075 4.6833-12.662 8.4948-18.876 11.879-6.2266 3.3691-12.254 6.2669-17.872 8.8108-5.6169 2.5479-10.86 4.6631-15.523 6.4864-4.6662 1.8168-8.7703 3.3033-12.168 4.4739-3.3978 1.1712-6.1001 1.9957-7.953 2.519-0.9265 0.2617-1.6427 0.4419-2.1298 0.5445-0.4856 0.1099-0.7433 0.1284-0.7433 0.1284-0.0024 2e-4 -0.0045-0.0016-0.0048-4e-3 -2e-4 -0.0024 0.0016-0.0045 0.0039-0.0048 0 0 0.2555-0.0286 0.7354-0.1574 0.4811-0.1214 1.1883-0.3295 2.1022-0.6273 1.8306-0.5868 4.4838-1.5442 7.8413-2.8089 3.3561-1.2688 7.4074-2.8737 12.007-4.8237 4.606-1.9356 9.7383-4.2665 15.3-6.8765 5.5488-2.6356 11.495-5.6297 17.614-9.0866 6.1105-3.4613 12.415-7.3849 18.441-12.049 3.012-2.3253 5.9525-4.8511 8.5774-7.7044 2.6246-2.8306 4.9562-6.0507 6.2213-9.6453 0.6191-1.7938 0.8889-3.684 0.7076-5.534-0.176-1.8515-0.8289-3.6452-1.827-5.2634-1.0008-1.6188-2.2928-3.0876-3.7537-4.4012-0.7531-0.6284-1.5027-1.2893-2.3058-1.8486-0.7947-0.5685-1.5867-1.1404-2.4871-1.6704-6.7595-4.2549-14.744-6.6542-22.543-5.7797-3.8857 0.3795-7.6634 1.4933-11.194 3.0441-3.5246 1.5792-6.8382 3.5515-9.8796 5.8047-6.1084 4.4908-11.262 9.8262-15.809 15.137-4.5324 5.3394-8.403 10.749-11.766 15.874-3.3586 5.132-6.1968 9.9957-8.6511 14.341-2.4406 4.3544-4.4316 8.2289-6.0216 11.444-3.1714 6.4357-4.7698 10.218-4.7698 10.218-0.0099 0.0245-0.0377 0.0363-0.0622 0.0265-0.0243-0.0095-0.0358-0.0373-0.027-0.0615z"/>
		<path d="m222.2 154.96s12.009-9.2466 26.476-28.114" fill="#F6F6F6"/>
		<path d="m221.81 154.46s1.9007-1.4415 4.6139-3.8369c1.3473-1.2037 2.9134-2.618 4.538-4.1921 1.6355-1.5627 3.334-3.2783 5.0138-5.0134 1.6689-1.7456 3.3052-3.523 4.8198-5.2082 1.4975-1.7 2.8906-3.292 4.0477-4.6884 1.1798-1.3778 2.1145-2.5657 2.7839-3.3854 0.6659-0.8226 1.0464-1.2927 1.0464-1.2927s-0.365 0.4822-1.0037 1.326c-0.6423 0.8411-1.5387 2.0599-2.6737 3.4763-1.1123 1.4349-2.4541 3.0733-3.8986 4.825-1.4616 1.7369-3.0432 3.5715-4.6599 5.3767-1.6276 1.7949-3.2764 3.5725-4.8684 5.1962-1.5807 1.6347-3.1098 3.1091-4.428 4.3663-2.6479 2.4968-4.5553 4.045-4.5553 4.045-0.2705 0.2195-0.6677 0.1783-0.8873-0.0922-0.2195-0.2705-0.1783-0.6677 0.0922-0.8873 0.0047-0.0037 0.0144-0.0113 0.0192-0.0149z"/>
		<path d="m226.23 155.9s22.24-9.2398 32.932-21.19" fill="#F6F6F6"/>
		<path d="m225.98 155.32s2.2679-0.9054 5.6113-2.4618c1.6642-0.7872 3.6052-1.7119 5.6445-2.7818 1.0273-0.521 2.0706-1.0928 3.1316-1.6733 1.0687-0.5674 2.1171-1.2075 3.1866-1.8133 1.0484-0.6407 2.0969-1.2814 3.1289-1.9121 1.006-0.6703 2.0102-1.3118 2.9583-1.9663 0.9321-0.676 1.8526-1.3062 2.6924-1.9467 0.8297-0.6544 1.6141-1.2732 2.3381-1.8444 0.6932-0.6088 1.3286-1.1668 1.8918-1.6614 0.579-0.4792 1.0066-0.9768 1.3972-1.3477 0.7612-0.7632 1.1961-1.1994 1.1961-1.1994s-0.4208 0.4499-1.1572 1.2371c-0.3786 0.3833-0.7925 0.8969-1.3561 1.3947-0.5488 0.5139-1.1679 1.0938-1.8434 1.7263-0.708 0.5962-1.475 1.2421-2.2863 1.9253-0.8224 0.6699-1.7249 1.3313-2.6404 2.0408-0.931 0.6877-1.9179 1.3637-2.9082 2.0701-1.0166 0.6668-2.0493 1.3442-3.082 2.0217-1.0541 0.6426-2.089 1.3205-3.144 1.9248-1.0476 0.6175-2.0786 1.2262-3.0943 1.7829-2.0165 1.1416-3.9385 2.134-5.5887 2.9801-3.3067 1.6706-5.5868 2.6669-5.5868 2.6669-0.3185 0.1411-0.6911-0.0027-0.8322-0.3212s0.0026-0.6911 0.3211-0.8322c0.0054-0.0024 0.0163-0.0069 0.0217-0.0091z"/>
	<ellipse cx="124.24" cy="146.95" rx="1.9433" ry="2.6343" fill="#fff"/>
			<ellipse transform="matrix(.9851 .1718 -.1718 .9851 26.734 -22.15)" cx="141.36" cy="143.42" rx="16.558" ry="21.557" fill="#fff"/>
		<path d="m158.22 146.38s-0.1022 0.4584-0.2939 1.3179c-0.0905 0.429-0.2065 0.9592-0.4159 1.5897-0.1976 0.6258-0.3882 1.3617-0.719 2.13-0.1537 0.3895-0.3155 0.7999-0.4853 1.2303-0.203 0.416-0.4155 0.8513-0.637 1.305-0.2076 0.4607-0.4747 0.9136-0.7573 1.3803-0.2827 0.4661-0.5477 0.9659-0.9028 1.4314-1.3073 1.9256-3.0828 3.9377-5.4613 5.5735-0.2983 0.2019-0.5997 0.4059-0.9041 0.612-0.3239 0.175-0.6511 0.3517-0.9814 0.5301-0.6448 0.3884-1.3811 0.6232-2.097 0.9271-0.3648 0.1355-0.7523 0.2173-1.1321 0.3292-0.3813 0.1098-0.7662 0.2172-1.1692 0.2582-0.3988 0.0586-0.8007 0.1177-1.2055 0.1772-0.4094 0.0083-0.8217 0.0167-1.2368 0.0251-0.4159 0.0293-0.831-0.026-1.2489-0.0749-0.4221-0.0642-0.8294-0.054-1.2705-0.1816-0.402-0.0994-0.8065-0.1993-1.2134-0.2999-0.407-0.1123-0.8166-0.3027-1.2273-0.4534-1.6105-0.6831-3.1356-1.6335-4.4229-2.8986-2.6301-2.4692-4.4501-5.8627-5.3873-9.4933-0.9907-3.6347-1.0276-7.5352-0.4433-11.297 0.2212-0.9552 0.3372-1.845 0.63-2.7776l0.4045-1.3846c0.1491-0.4549 0.3322-0.894 0.4969-1.3412 0.3065-0.9036 0.765-1.7417 1.1565-2.6057 0.2224-0.4189 0.4681-0.8251 0.7009-1.2372 0.2259-0.4167 0.4756-0.8179 0.7546-1.2 2.0873-3.1366 4.9395-5.7697 8.2837-7.2615 3.3104-1.5258 7.1782-1.6784 10.307-0.5458 0.4053 0.1539 0.8079 0.3068 1.2076 0.4586 0.3682 0.196 0.7337 0.3905 1.0965 0.5836 0.3727 0.1784 0.7053 0.4129 1.0334 0.6489 0.326 0.2374 0.6695 0.4496 0.9728 0.7043 0.5797 0.5389 1.1989 1.0231 1.6787 1.6179 0.2524 0.2855 0.5024 0.5683 0.75 0.8483 0.218 0.3023 0.4338 0.6017 0.6474 0.8979 1.6839 2.392 2.6572 4.9184 3.2136 7.195 0.1692 0.5644 0.242 1.1294 0.3428 1.6682 0.1005 0.5392 0.1913 1.0596 0.2235 1.5665 0.0476 0.5047 0.0932 0.9889 0.1369 1.4515 0.0073 0.4642 0.0142 0.9068 0.0208 1.3269 0.0387 0.8406-0.042 1.5877-0.0766 2.2384-0.0244 0.6522-0.1035 1.2006-0.1718 1.6447-0.1263 0.889-0.1937 1.3632-0.1937 1.3632l-0.0041 0.0214zm-1.0938-0.2127s0.058-0.4567 0.1667-1.313c0.0598-0.4275 0.1288-0.9551 0.1423-1.581 0.0237-0.6244 0.0927-1.3415 0.0427-2.145-0.0118-0.4015-0.0242-0.8246-0.0372-1.2682-0.0482-0.4408-0.0986-0.902-0.1512-1.3828-0.0366-0.4831-0.131-0.977-0.2342-1.4881-0.1035-0.5106-0.1784-1.0473-0.3479-1.5789-0.5436-2.1535-1.4718-4.5331-3.0499-6.7482-0.1992-0.2745-0.4005-0.5519-0.6039-0.8321-0.2301-0.2571-0.4624-0.5168-0.697-0.7789-0.4434-0.5514-1.0175-0.9832-1.5457-1.4814-0.2744-0.2368-0.5856-0.4304-0.8799-0.6515-0.2961-0.2195-0.5962-0.4388-0.9329-0.602-0.3271-0.1799-0.6567-0.3612-0.9886-0.5438-0.3427-0.1352-0.6879-0.2714-1.0354-0.4085-2.9337-1.0943-6.3591-0.9863-9.4767 0.3817-3.1205 1.3452-5.8666 3.7984-7.9009 6.7809-0.2721 0.3621-0.5161 0.7439-0.7372 1.1419-0.2279 0.3932-0.4693 0.7801-0.6881 1.1803-0.3853 0.8272-0.8385 1.6282-1.1412 2.498-0.7226 1.6884-1.1482 3.4827-1.5348 5.3066-0.6015 3.6382-0.6054 7.4218 0.3187 10.946 0.8705 3.5222 2.5974 6.8095 5.0908 9.1972 1.213 1.2271 2.7112 2.1048 4.208 2.7353 0.3856 0.1365 0.7437 0.3092 1.1442 0.4169 0.4076 0.0973 0.8129 0.1939 1.2158 0.2901 0.3571 0.1063 0.7867 0.0992 1.1722 0.1548 0.3951 0.0433 0.7873 0.0941 1.1801 0.0615 0.3918-0.0107 0.781-0.0213 1.1674-0.0319 0.3822-0.0598 0.7616-0.1191 1.1382-0.1779 0.3802-0.0402 0.744-0.146 1.1044-0.2535 0.359-0.1096 0.7249-0.188 1.07-0.3197 0.6776-0.297 1.3741-0.5205 1.986-0.8982 0.3133-0.1721 0.6236-0.3427 0.9309-0.5115 0.2892-0.1995 0.5754-0.397 0.8588-0.5925 2.2502-1.5957 3.924-3.5567 5.1511-5.4276 0.3345-0.4513 0.5811-0.9382 0.8459-1.3905 0.2647-0.4528 0.5149-0.8917 0.7071-1.3393 0.2062-0.4397 0.4041-0.8616 0.5931-1.2646 0.1566-0.4171 0.3059-0.8147 0.4476-1.1921 0.3091-0.7489 0.4731-1.4414 0.6522-2.0351 0.1875-0.5849 0.2961-1.1175 0.3802-1.552 0.1779-0.8625 0.2727-1.3224 0.2727-1.3224l-0.0044 0.0207z"/>
	<ellipse cx="140.46" cy="149.04" rx="6.5673" ry="9.7183" stroke="#000" stroke-miterlimit="10" stroke-width=".5615"/>
	<ellipse cx="144.65" cy="143.86" rx="3.0545" ry="4.1402" fill="#fff"/>
	<linearGradient id="k" x1="164.56" x2="198.27" y1="212.57" y2="212.57" gradientUnits="userSpaceOnUse">
		<stop stop-color="#FFEE27" offset="0"/>
		<stop stop-color="#FFE612" offset=".1425"/>
		<stop stop-color="#FFD600" offset=".4575"/>
		<stop stop-color="#FECC00" offset=".7511"/>
		<stop stop-color="#FDC800" offset="1"/>
	</linearGradient>
	<path d="m195.58 201.32s-9.7139 17.533-22.865 17.533c-1.5835-0.6738-3.1596-1.3037-4.9194-1.1123-1.5498 0.169-1.499 1.501-0.1562 2.0488-1.4415-0.1904-4.1607 0.3262-2.607 3.2754 1.1778 2.2354 7.8037-1.1679 7.8037-1.1679s17.086-1.5459 25.44-19.396" fill="url(#k)" stroke="#000" stroke-miterlimit="10" stroke-width=".6941"/>
		<ellipse cx="160.72" cy="97.018" rx="5.2531" ry="4.9903" fill="#F29400"/>
		<path d="m166.33 97.037s-0.0078 0.1255-0.0226 0.3607c-0.015 0.2239-0.0701 0.6443-0.2076 1.0816-0.2627 0.8903-0.9628 2.1524-2.3508 2.9817-0.6826 0.4116-1.5111 0.7155-2.4182 0.8105-0.2311 0.0155-0.4473 0.0305-0.7005 0.0267-0.2241-0.0157-0.4371-0.0111-0.6867-0.0567-0.4922-0.0551-0.9502-0.2018-1.4158-0.3799-0.9135-0.3868-1.7675-1.0131-2.388-1.8633-0.6184-0.8559-0.9769-1.8895-0.9851-2.997 0.0036-0.4791 0.0854-1.0657 0.2417-1.5656 0.1708-0.5072 0.413-0.9854 0.7131-1.42 0.6142-0.8622 1.4657-1.5152 2.3922-1.9053 0.9225-0.3833 1.9372-0.5105 2.821-0.4247 0.9518 0.0973 1.7715 0.3978 2.4701 0.8192 1.3974 0.8589 2.0881 2.1435 2.3331 3.0443 0.131 0.4559 0.1745 0.8291 0.1883 1.081 0.0108 0.2531 0.0165 0.3881 0.0165 0.3881l-7e-4 0.0187zm-0.7147-0.019s-0.0076-0.1161-0.0219-0.3337c-0.0158-0.2164-0.0601-0.5354-0.18-0.9228-0.2307-0.7619-0.8235-1.8566-2.0349-2.5892-0.5837-0.3696-1.333-0.6463-2.1009-0.7392-0.8335-0.0923-1.6799 0.0101-2.5071 0.3313-0.8171 0.3297-1.573 0.8911-2.1229 1.6378-0.2668 0.3775-0.4835 0.7926-0.6393 1.2336-0.1413 0.4581-0.2138 0.8715-0.2296 1.3988 0.0075 0.4374 0.0755 0.9292 0.2115 1.3714 0.1504 0.4448 0.3627 0.8655 0.6265 1.2497 0.5435 0.7586 1.297 1.3466 2.1273 1.6795 0.4138 0.1543 0.8486 0.2873 1.2607 0.328 0.1975 0.0392 0.4356 0.0351 0.6537 0.0481 0.1894 2e-4 0.4117-0.0147 0.6107-0.03 0.8126-0.0951 1.5532-0.368 2.153-0.7473 1.221-0.7619 1.8045-1.8792 2.0173-2.6516 0.1134-0.4061 0.146-0.6779 0.1606-0.9222 0.0103-0.2355 0.0157-0.3611 0.0157-0.3611l-4e-4 0.0189z"/>
		<ellipse cx="135.55" cy="100.58" rx="3.3498" ry="2.8711" fill="#F29400"/>
		<path d="m132.47 100.56s0.0042 0.0763 0.012 0.2194c0.0114 0.1446 0.0374 0.2957 0.1121 0.5346 0.1523 0.4456 0.5513 1.0788 1.318 1.4712 0.3753 0.1975 0.8246 0.3372 1.3127 0.3813 0.1186 0.0045 0.255 0.0134 0.3636 0.0116 0.1305-0.0094 0.2813-0.0056 0.3963-0.0284 0.2417-0.0239 0.5053-0.0931 0.754-0.1764 0.4965-0.1818 0.9733-0.4832 1.32-0.9054 0.3537-0.4085 0.5544-0.9677 0.5573-1.4757-0.0115-0.5919-0.2127-1.0719-0.57-1.4992-0.3499-0.4142-0.8209-0.7151-1.3148-0.8954-0.5035-0.1729-1.0073-0.2331-1.5168-0.1911-0.4613 0.0423-0.925 0.1823-1.2925 0.3782-0.7589 0.3918-1.1658 1.01-1.3208 1.4551-0.0756 0.2268-0.1078 0.4128-0.1176 0.5401-0.0084 0.1277-0.0128 0.1958-0.0128 0.1958l-7e-4 -0.0157zm-0.5324 0.0157s0.0045-0.0845 0.013-0.2429c0.0113-0.1577 0.0482-0.3898 0.1403-0.6712 0.1857-0.555 0.6816-1.3049 1.5675-1.771 0.4413-0.2349 0.9427-0.3993 1.5285-0.4564 0.5369-0.05 1.1582 0.01 1.7398 0.2094 0.581 0.207 1.1513 0.554 1.5734 1.0688 0.4278 0.4867 0.6944 1.2113 0.6913 1.8459-0.0049 0.7185-0.272 1.364-0.7033 1.8696-0.4253 0.5069-0.9896 0.8534-1.568 1.0591-0.2951 0.0956-0.5805 0.1694-0.8888 0.1981-0.1576 0.0244-0.2814 0.0176-0.4198 0.0264-0.1607 0.0017-0.2906-0.0098-0.4342-0.0168-0.559-0.0551-1.075-0.2198-1.5084-0.453-0.8782-0.4651-1.3823-1.1999-1.5709-1.7543-0.0931-0.2694-0.1363-0.5363-0.146-0.6767-0.0091-0.143-0.0139-0.2193-0.0139-0.2193l-5e-4 -0.0157z"/>
</svg>